<?xml version="1.0" encoding="UTF-8"?>
<svg width="700pt" height="700pt" fill="#fdc92e" version="1.1" viewBox="0 0 700 700" xmlns="http://www.w3.org/2000/svg" xmlns:xlink="http://www.w3.org/1999/xlink">
  <g>
  <path d="m183.33 337.12c2.1289 4.7188 4.1406 9.1758 6.418 12.723l2.1953 3.6797c1.2188 2.0703 2.4297 4.1406 3.7109 6.1602l9.5898 13.02 10.656 11.793c4.082 3.8633 8.2188 7.5625 12.336 11.25l3.0625 2.7422c19.953 16.359 43.469 28.926 68.023 36.359 22.355 6.8086 45.594 9.6328 69.121 8.3828 20.801-1.1172 40.66-5.082 57.41-11.465l1.3047-0.44922c5.418-1.6758 10.605-4.1406 16.102-6.7461 2.0859-0.98828 4.1328-1.957 6.1523-2.8711 4.2969-2.1523 8.4375-4.6562 12.449-7.0703 1.8242-1.1016 3.5977-2.168 5.3359-3.1836 2.8594-1.9883 5.5039-3.8633 8.0195-5.668l15.211-10.891 20.125 20.648 20.707-76.836-77.336 18.73 24.094 24.711-24.316 13.992c-1.0898 0.62891-2.1953 1.293-3.332 1.9766-3.1094 1.8672-6.6367 3.9883-10.797 6.0352l-1.1055 0.50781c-1.5234 0.64844-3.0508 1.3867-4.625 2.1367-4.0117 1.918-8.9492 4.2734-14.754 6.0586-14.984 5.707-32.785 9.2617-51.551 10.293-21.266 1.125-42.199-1.4023-62.254-7.5-22.223-6.707-43.539-18.121-61.598-32.996l-0.8125-0.70313-13.543-12.473-9.2656-10.43-8.1289-11.219-3.7383-6.3086c-2.7422-4.1719-4.5859-8.3047-6.0859-11.664-0.62109-1.3906-1.2344-2.7891-1.9336-4.1445l-0.94922-2.0977c-9.5625-24.465-12.594-50.145-8.7852-74.328 0.51172-5.0234 1.6172-9.3984 2.5977-13.281 0.36719-1.4609 0.74219-2.918 1.0508-4.3945l0.52344-1.9961c0.55469-1.7773 1.1836-3.5352 1.8125-5.2852 0.33203-0.92188 0.66406-1.8477 0.97656-2.7812l2.2656-6.2305 1.4727-3.1211c4.9141-11.996 11.93-21.84 19.285-31.695l1.0273-1.2695c9.4805-10.887 17.742-18.418 26.785-24.422 10.129-6.5234 21.047-11.34 32.703-14.488 10.793-3.043 22.555-4.2578 34.719-3.5508 11.93 0.64453 23.016 2.9258 32.852 6.7852 9.8828 3.6055 19.082 8.5234 26.934 14.457 3.8008 2.5664 6.8555 5.3516 9.3359 7.6133l1.4766 1.332c2.3477 1.9492 3.9492 3.8086 4.9414 4.9648l0.45703 0.51953c1.6289 1.7031 3.4961 3.7539 5.25 6.2891 5.1055 6.5742 9.125 14.047 12.285 22.809 3.3633 8.5859 4.4375 17.262 4.9297 22.996 1.1133 17.227-2.5078 30.434-5.7305 38.562-1.4961 3.6992-3.1719 7.2109-5.0195 10.543l14.973 14.199c3.4219-5.5312 6.3984-11.461 8.8945-17.727 3.9219-9.9727 8.3477-26.273 6.9531-46.777-0.82812-10.469-2.7891-19.801-5.9688-28.293-3.9336-10.941-9.0859-20.473-15.414-28.59l-0.67578-0.91797c-1.0859-1.5586-2.5352-3.293-4.6914-5.625l-2.1094-2.3164c-1.1523-1.2812-2.457-2.7344-3.1641-3.3359l-1.5781-1.4219c-4.2578-3.9023-8.2773-7.5938-12.434-10.438l-0.82812-0.59375c-9.332-7.0508-20.242-12.879-32.422-17.324-11.766-4.4727-24.57-7.0586-38.352-7.7891-14.043-0.78516-27.594 0.58984-40.387 4.1055-13.953 3.7266-26.887 9.418-38.59 16.969-5.8867 4.168-11.941 8.4844-16.824 13.199l-4.3867 4.0273-11.074 12.242c-18.629 23.301-30.918 51.098-34.621 78.336-4.4961 28.27-1.0547 57.652 9.8789 85.484 0.94922 2.0195 1.8633 4.0508 2.7773 6.0742z"/>
  <use x="70" y="653.332031" xlink:href="#t"/>
  <use x="92.832031" y="653.332031" xlink:href="#d"/>
  <use x="108.175781" y="653.332031" xlink:href="#a"/>
  <use x="129.273437" y="653.332031" xlink:href="#l"/>
  <use x="150.269531" y="653.332031" xlink:href="#c"/>
  <use x="165.140625" y="653.332031" xlink:href="#a"/>
  <use x="186.242188" y="653.332031" xlink:href="#k"/>
  <use x="219.34375" y="653.332031" xlink:href="#j"/>
  <use x="241.613281" y="653.332031" xlink:href="#i"/>
  <use x="272.722656" y="653.332031" xlink:href="#h"/>
  <use x="283.386719" y="653.332031" xlink:href="#e"/>
  <use x="301.828125" y="653.332031" xlink:href="#b"/>
  <use x="323.203125" y="653.332031" xlink:href="#g"/>
  <use x="345.351562" y="653.332031" xlink:href="#e"/>
  <use x="363.792969" y="653.332031" xlink:href="#f"/>
  <use x="385.941406" y="653.332031" xlink:href="#a"/>
  <use x="407.042969" y="653.332031" xlink:href="#a"/>
  <use x="428.140625" y="653.332031" xlink:href="#s"/>
  <use x="446.660156" y="653.332031" xlink:href="#a"/>
  <use x="70" y="684.445312" xlink:href="#r"/>
  <use x="83.535156" y="684.445312" xlink:href="#d"/>
  <use x="98.878906" y="684.445312" xlink:href="#b"/>
  <use x="120.25" y="684.445312" xlink:href="#q"/>
  <use x="163.5" y="684.445312" xlink:href="#c"/>
  <use x="178.371094" y="684.445312" xlink:href="#f"/>
  <use x="200.519531" y="684.445312" xlink:href="#a"/>
  <use x="232.453125" y="684.445312" xlink:href="#p"/>
  <use x="258.488281" y="684.445312" xlink:href="#b"/>
  <use x="279.863281" y="684.445312" xlink:href="#o"/>
  <use x="302.011719" y="684.445312" xlink:href="#g"/>
  <use x="334.992188" y="684.445312" xlink:href="#n"/>
  <use x="357.792969" y="684.445312" xlink:href="#d"/>
  <use x="373.136719" y="684.445312" xlink:href="#b"/>
  <use x="394.507812" y="684.445312" xlink:href="#m"/>
  <use x="405.171875" y="684.445312" xlink:href="#a"/>
  <use x="426.273437" y="684.445312" xlink:href="#e"/>
  <use x="444.714844" y="684.445312" xlink:href="#c"/>
 </g>
</svg>
