<?xml version="1.0" encoding="UTF-8"?>
<svg width="700pt" height="700pt" version="1.1" fill="#fdc92e" viewBox="0 0 700 700" xmlns="http://www.w3.org/2000/svg">
 <path d="m214.48 313.18 229.6 142.8h-0.003906c6.1953 3.9336 13.383 6.0195 20.723 6.0195 6.6719-0.03125 13.227-1.7656 19.039-5.0391 6.125-3.3164 11.23-8.2344 14.781-14.227 3.5508-5.9883 5.4102-12.832 5.3789-19.793v-285.88c-0.054688-9.3359-3.4453-18.348-9.5547-25.41-6.1094-7.0625-14.543-11.711-23.773-13.109-9.2344-1.3984-18.664 0.54297-26.594 5.4805l-229.6 142.8h0.003907c-11.473 7.125-18.449 19.672-18.449 33.18s6.9766 26.055 18.449 33.18zm14-42 230.3-143.5c3.543-2.0781 7.9336-2.0781 11.48 0 3.5039 1.957 5.6953 5.6445 5.7383 9.6602v285.6c-0.042969 4.0156-2.2344 7.6992-5.7383 9.6602-3.5625 2.0195-7.9219 2.0195-11.48 0l-229.6-143.22c-3.2344-2.0195-5.1992-5.5664-5.1992-9.3789s1.9648-7.3594 5.1992-9.3789z"/>
</svg>
