<?xml version="1.0" encoding="UTF-8"?>
<svg width="700pt" height="700pt" fill="#fdc92e" version="1.1" viewBox="0 0 700 700" xmlns="http://www.w3.org/2000/svg">
 <path d="m216.16 456.96c5.8125 3.2734 12.367 5.0078 19.039 5.0391 7.3398 0 14.527-2.0859 20.723-6.0195l229.6-142.8h-0.003907c11.473-7.125 18.449-19.672 18.449-33.18s-6.9766-26.055-18.449-33.18l-229.6-142.8c-7.9297-4.9375-17.359-6.8789-26.594-5.4805-9.2305 1.3984-17.664 6.0469-23.773 13.109-6.1094 7.0625-9.5 16.074-9.5547 25.41v285.88c-0.03125 6.9609 1.8281 13.805 5.3789 19.793 3.5508 5.9922 8.6562 10.91 14.781 14.227zm7.8398-319.9c0.042969-4.0156 2.2344-7.6992 5.7383-9.6602 1.6797-0.90234 3.5547-1.3828 5.4609-1.3984 2.125 0 4.207 0.58203 6.0195 1.6797l229.6 142.94c3.2344 2.0195 5.1992 5.5664 5.1992 9.3789s-1.9648 7.3594-5.1992 9.3789l-229.6 142.94c-3.543 2.0781-7.9336 2.0781-11.48 0-3.5039-1.957-5.6953-5.6445-5.7383-9.6602z"/>
</svg>
