<?xml version="1.0" encoding="UTF-8"?>
<svg width="700pt" height="700pt" fill="#0fa78f" version="1.1" viewBox="0 0 700 700" xmlns="http://www.w3.org/2000/svg" xmlns:xlink="http://www.w3.org/1999/xlink">
 <g>
  <path d="m243.25 453.86c-1.1523 0-2.3789-0.19141-3.6211-0.70703-3.8516-1.5859-5.5078-5.2773-6.3945-7.2578-9.8125-21.844-19.227-40.137-31.477-61.164l9.4492-5.5078c12.453 21.379 22.027 39.973 32.004 62.184 0.11328 0.25781 0.38672 0.86328 0.64453 1.3359 0.25-0.085938 0.58594-0.21875 1.0273-0.41406 8.6172-3.7422 17.156-8.4062 25.402-12.918 9.2656-5.0625 18.844-10.305 28.863-14.438 30.133-12.441 62.328-14.453 92.629-14.777 15.035-0.16016 32.5 0.011719 49.531 4.0586 14.641 3.4766 27.438 9.6016 37.566 17.91 2.3086-10.359 5.4727-20.508 9.4453-30.285l10.133 4.1133c-4.9219 12.129-8.5312 24.867-10.723 37.859-0.35156 2.0625-1.8359 3.7422-3.8438 4.3359-2.0078 0.58984-4.1719-0.011718-5.582-1.5469-9.4609-10.324-23.129-17.844-39.523-21.738-15.828-3.7617-32.496-3.9102-46.883-3.7617-29.207 0.3125-60.152 2.2148-88.57 13.945-9.4648 3.9102-18.781 9-27.785 13.922-8.4648 4.625-17.223 9.418-26.301 13.355-1.2578 0.54297-3.4453 1.4961-5.9922 1.4961z"/>
  <path d="m416.64 384.43c-4.1055 0-7.8164-1.6797-10.242-2.7773-26.547-12.016-53.316-24.504-79.555-37.129l-0.13672-0.066406c-4.6602-2.2422-9.0625-4.3594-13.695-5.6992-4.5352-1.3125-9.5391-1.9141-14.379-2.5l-37.789-4.5547c-8.1641-0.98438-16.602-2.0078-24.805-1.9102-18.879 0.21484-37.27 6.6289-50.449 17.594-4.9062 4.0859-8.6953 3.3516-11.008 2.0195-2.3242-1.3398-3.2773-3.4961-3.7305-4.5273-2.8008-6.3398-5.6914-12.895-6.7383-20.223-0.99609-7 0.83203-25.988 11.262-31.457l5.082 9.6836c-3.9492 2.0742-6.3555 14.305-5.5078 20.23 0.71094 4.9922 2.707 10.004 4.8398 14.898 14.98-11.953 35.344-18.922 56.137-19.156 8.918-0.10547 17.723 0.96094 26.238 1.9922l37.789 4.5547c5.2734 0.63281 10.723 1.2969 16.109 2.8555 5.5078 1.5898 10.531 4.0078 15.395 6.3477l0.13672 0.066407c26.164 12.582 52.852 25.043 79.324 37.02 2.4297 1.0977 4.9336 2.1367 6.5117 1.7109 0.90234-0.24609 2.0078-1.1445 2.9648-1.9922 7.6133-6.7422 12.984-15.391 18.664-24.543 1.6719-2.7031 3.4062-5.4922 5.1953-8.2148 6.75-10.285 17.664-24.543 34.457-29.625l3.168 10.469c-10.195 3.0859-19.246 11.074-28.48 25.156-1.7109 2.6016-3.4062 5.3359-5.0469 7.9844-5.8477 9.418-11.895 19.156-20.703 26.961-1.9102 1.6914-4.2773 3.5312-7.3672 4.3633-1.2461 0.33203-2.4609 0.46875-3.6406 0.46875z"/>
  <path d="m429.1 407.69c-5.6328 0-11.117-0.61328-16.156-1.2578-6.3398-0.81641-12.738-1.793-18.922-2.7383-14.441-2.2031-29.383-4.4844-44.039-4.7695-5.0859-0.097656-10.332 0.042969-15.395 0.17578-6.9961 0.1875-14.23 0.37891-21.449-0.027343-12.684-0.71094-25.297-3.2578-37.5-5.7266-19.727-3.9805-38.352-7.75-56.906-4.293-0.39453 0.070312-0.78125 0.14844-1.1758 0.22266-2.4375 0.47656-5.1992 1.0078-8.1719 0.85938-4.6875-0.24609-8.8555-2.1719-12.207-3.7188l-24.852-11.484c-17.723-8.1914-18.402-18.113-17.227-23.297 0.30078-1.3281 0.75391-2.4727 1.1523-3.4766 0.31641-0.79688 0.67969-1.6992 0.6875-2.1211 0.015625-0.5625-0.5625-1.7656-1.0703-2.8281-0.33203-0.69922-0.68359-1.4219-1.0078-2.2266-4.1875-10.32 1.0898-23.281 11.297-27.738l4.375 10.023c-4.8281 2.1055-7.5195 8.7109-5.5391 13.594 0.19531 0.48828 0.46094 1.0273 0.73438 1.6094 0.99609 2.0664 2.2305 4.6445 2.1484 7.8438-0.058594 2.3672-0.83594 4.3164-1.4531 5.8789-0.27734 0.69922-0.54297 1.3555-0.65234 1.8555-0.875 3.8711 5.1836 8.1992 11.152 10.953l24.852 11.484c2.7578 1.2734 5.6055 2.5938 8.1875 2.7227 1.6289 0.082031 3.5156-0.28516 5.5195-0.67188 0.42188-0.082031 0.84375-0.16406 1.2578-0.24219 20.641-3.8438 41.195 0.30469 61.074 4.3242 11.824 2.3906 24.047 4.8555 35.945 5.5273 6.7656 0.38281 13.77 0.19141 20.539 0.011718 5.1914-0.13672 10.559-0.27734 15.898-0.17969 15.383 0.29688 30.684 2.6289 45.484 4.8945 6.125 0.93359 12.457 1.9023 18.672 2.7031 8.4102 1.082 17.32 1.9805 25.66 0.042969 3.25-0.75391 6.4414-1.9414 9.8281-3.1992 2.8164-1.043 5.7266-2.1289 8.7656-2.9844 8.9805-2.5312 18.145-2.8477 27.016-3.1562 6.3438-0.21875 12.336-0.42578 18.234-1.3828 12.418-2.0195 26.277-9.7344 27.355-21.898 0.27344-3.1016-0.28516-6.5078-0.875-10.117-0.96875-5.9219-2.0664-12.633 0.63281-19.184 0.51562-1.2461 1.1328-2.4023 1.6797-3.418 0.79688-1.4883 1.625-3.0195 1.5625-3.8984-0.070313-1.0625-1.9102-2.7734-5.8477-4.2109-17.871-6.5234-33.93-7.25-47.727-2.1641l-3.7852-10.258c16.293-6.0117 34.887-5.2891 55.262 2.1562 10.23 3.7344 12.719 9.5391 13.004 13.75 0.27344 4.0156-1.4531 7.2305-2.8398 9.8125-0.46484 0.86328-0.90234 1.6836-1.207 2.418-1.5195 3.6797-0.79297 8.1094 0.050781 13.246 0.67188 4.1172 1.3711 8.3789 0.98047 12.852-0.75 8.4531-5.2617 16.051-13.047 21.973-6.4141 4.8789-14.738 8.3398-23.445 9.7578-6.5742 1.0664-13.203 1.2969-19.605 1.5195-8.5977 0.29688-16.719 0.57812-24.43 2.75-2.6133 0.73828-5.1914 1.6953-7.918 2.7109-3.5586 1.3242-7.2422 2.6914-11.172 3.6055-4.4648 1.0117-8.9688 1.3906-13.387 1.3906z"/>
  <path d="m313.64 249.48c-18.348 0-36.801-0.42188-55.113-1.75-36.23-2.625-64.754-8.5156-89.785-18.535-2.9375-1.1758-4.625-4.2383-6.0195-10.926-0.96094-4.6172-1.4805-9.8438-1.418-14.355 0.3125-21.797 11.051-44.273 28.727-60.129 16.324-14.633 35.891-22.355 52.949-28.449 34.02-12.145 64.285-19.227 92.531-21.66 34.039-2.9297 65.406 1.1484 93.23 12.125 10.828 4.2695 22.055 9.8867 36.398 18.207 14.438 8.3711 30.84 18.688 42.781 35.152 10.605 14.625 16.883 33.238 17.668 52.418 0.14062 3.4844 0.10547 7.207-1.1641 10.855-2 5.7578-6.375 9.2969-9.4883 11.453-11.426 7.9141-24.336 10.285-34.312 11.469-10.57 1.2539-21.242 1.4727-31.559 1.6836l-87.281 1.7773c-15.844 0.33594-31.957 0.66406-48.145 0.66406zm-139.26-29.816c23.582 9.2109 50.629 14.668 84.941 17.156 33.961 2.4609 68.676 1.7539 102.25 1.0703l87.281-1.7773c10.059-0.20703 20.453-0.41406 30.492-1.6094 12.945-1.5352 22.008-4.4961 29.371-9.5977 2.9922-2.0742 4.6523-3.9375 5.3867-6.0547 0.66797-1.918 0.66797-4.4141 0.57031-6.8125-0.70703-17.051-6.2461-33.551-15.598-46.445-10.688-14.738-25.949-24.305-39.418-32.113-13.852-8.0352-24.625-13.43-34.922-17.496-48.266-19.043-106.52-15.883-178.07 9.6641-16.078 5.7422-34.48 12.977-49.324 26.289-15.445 13.848-24.824 33.336-25.09 52.141-0.097657 6.6055 1.2656 13.07 2.1328 15.586zm0.375 0.88281m-1.9414-1.5c0.003906 0 0.011718 0.003907 0.011718 0.003907-0.007812-0.003907-0.007812-0.003907-0.011718-0.003907z"/>
  <path d="m550.34 322.95c-5.918 0-12.246-3.668-16.328-6.043l-0.11328-0.066406c-12.262-7.1133-27.305-5.3711-43.23-3.5234-5.207 0.60156-10.586 1.2305-15.859 1.5156-8.7891 0.47656-15.723-0.23438-21.816-2.2539-0.72266-0.24219-1.4453-0.50391-2.1641-0.76172-1.8867-0.6875-3.6758-1.3359-5.1289-1.3438h-0.03125c-1.4336 0-3.1016 0.57813-5.0352 1.2539-1.2734 0.44141-2.5938 0.89844-4.0312 1.2539-2.2148 0.54688-4.3867 0.80469-6.5117 0.80469-11.469 0-21.602-7.3867-29.957-15.645-0.050781 0.050781-0.097656 0.09375-0.14844 0.14062-3.4336 3.2383-8.707 5.1406-13.754 4.9648-3.7734-0.13281-7.1797-1.0625-10.469-1.957-2.3242-0.63281-4.5156-1.2305-6.6289-1.4766-5.1641-0.60156-10.777 0.70703-16.723 2.0938-8.8828 2.0781-18.949 4.4297-28.301-0.39453-3.5273-1.8203-6.2305-4.3086-8.8438-6.7227-1.2695-1.1719-2.4727-2.2812-3.7031-3.2422-7.0312-5.5078-17.406-7.7617-28.465-6.1836-10.914 1.5547-21.523 6.4297-30.609 10.879-4.8281 2.3672-11.445 5.6055-18.539 3.8438-1.3984-0.35156-2.625-0.84766-3.707-1.2891-0.90234-0.37109-1.7617-0.71484-2.4297-0.84766-2.4219-0.47656-5.3203 1.2031-8.6797 3.1484-2.668 1.543-5.6875 3.293-9.082 4.2227-6.2383 1.7109-12.289 0.31641-17.633-0.90625-3.2695-0.75391-6.3594-1.4609-9.2422-1.4609-4.9805 0-9.9922 2.1211-15.301 4.375-2.6641 1.125-5.4141 2.2969-8.2812 3.2422-10.609 3.5039-24.641 2.4336-30.391-8.1875-3.4141-6.3047-2.2812-12.949-1.2812-18.812 0.60547-3.5703 1.1797-6.9453 0.71094-9.8281-0.42188-2.5586-1.7656-5.207-3.1875-8.0117-1.8086-3.5664-3.8672-7.6055-4.3711-12.309-0.53125-4.9453 0.78906-9.668 1.8438-13.465l6.9297-24.883c0.4375-1.5703 1.5547-2.8672 3.0391-3.5273 1.4883-0.66016 3.1953-0.62891 4.6523 0.09375 6.5508 3.2422 22.176 5.9102 29.188 4.1875l2.6094 10.621c-7.8867 1.9375-21.191 0.27344-30.566-2.6523l-5.3164 19.09c-0.89062 3.1992-1.8086 6.5039-1.5039 9.3633 0.28906 2.707 1.7266 5.5352 3.25 8.5273 1.6562 3.2656 3.5391 6.9609 4.2344 11.195 0.76953 4.6875-0.023438 9.3359-0.72266 13.438-0.80469 4.7148-1.5 8.7891 0.11328 11.773 2.6016 4.8125 10.879 5.1406 17.34 3.0078 2.4375-0.80469 4.8672-1.8359 7.4414-2.9258 6.0742-2.5742 12.363-5.2383 19.566-5.2383h0.003906c4.1172 0 7.9688 0.88672 11.688 1.7383 4.4805 1.0273 8.707 2 12.289 1.0234 2.0273-0.55859 4.1992-1.8086 6.4922-3.1406 4.5977-2.6641 9.8125-5.6836 16.266-4.418 1.7109 0.33203 3.1719 0.92969 4.457 1.4531 0.80859 0.33203 1.582 0.64453 2.2109 0.80469 2.9844 0.74219 6.6328-0.87109 11.09-3.0508 9.8398-4.8164 21.379-10.105 33.879-11.883 13.988-1.9922 27.387 1.0703 36.75 8.4062 1.5742 1.2344 2.9961 2.5469 4.375 3.8164 2.1719 2.0078 4.2227 3.8984 6.4375 5.0352 5.7695 2.9766 12.73 1.3438 20.797-0.53516 6.6016-1.543 13.426-3.1406 20.492-2.3086 2.9219 0.34375 5.6172 1.0781 8.2266 1.7891 2.8164 0.76562 5.4727 1.4883 7.9844 1.582 2.1367 0.078125 4.5391-0.74219 5.8633-1.9922 0.84766-0.79687 0.86328-1.3945 0.86328-1.6172 0.050781-2.2383 1.4609-4.2148 3.5586-5 2.1016-0.78125 4.457-0.20703 5.9609 1.4531 8.5859 9.4766 19.879 19.992 31.105 17.211 0.96094-0.24219 1.9922-0.59766 3.0859-0.97266 2.5312-0.875 5.4023-1.8711 8.7109-1.8555 3.3516 0.023438 6.2461 1.0703 8.8047 2 0.625 0.22266 1.2422 0.45313 1.8633 0.65625 4.7539 1.5703 10.406 2.1172 17.785 1.7109 4.9336-0.26953 9.9141-0.84766 15.191-1.4609 17.004-1.9688 34.586-4.0078 49.984 4.9258l0.12109 0.070312c2.5156 1.4609 10.16 5.8945 11.488 4.2109 0.98437-1.2461-1.5273-5.6992-3.0234-8.3555-0.38672-0.69531-0.76953-1.3711-1.125-2.0352-4.2266-7.8203-5.2461-17.211-2.793-25.758 0.57812-2.0273 1.3281-3.9531 2.0508-5.8125 1.5078-3.8984 2.8164-7.2695 2.1758-10.16-0.42578-1.9258-1.7773-3.8516-3.3359-6.0859-1.5312-2.1914-3.2695-4.6758-4.3789-7.6445-0.71484-1.918-1.0898-3.832-1.4219-5.5234-0.33984-1.7383-0.66016-3.3789-1.2695-4.543-1.2891-2.4766-4.9062-4.1445-8.7734-4.0586-5.5273 0.125-11.344 1.1875-15.172 2.7734l-4.1875-10.102c5.0703-2.1055 12.219-3.4492 19.113-3.6055 8.1172-0.17578 15.477 3.7188 18.719 9.9297 1.3398 2.5703 1.8555 5.1953 2.3008 7.5078 0.27344 1.3984 0.53125 2.7188 0.93359 3.7969 0.625 1.6641 1.8203 3.3867 3.0938 5.1992 1.9453 2.7891 4.1562 5.9492 5.0547 9.9922 1.3516 6.1211-0.77734 11.621-2.6562 16.473-0.66016 1.7109-1.2891 3.332-1.7344 4.8789-1.668 5.8203-0.97266 12.219 1.9023 17.543 0.32812 0.60547 0.67969 1.2305 1.0391 1.8633 3.0312 5.375 7.6016 13.504 2.0781 20.504-2.6211 3.2969-5.8672 4.4922-9.2461 4.4922z"/>
  <path d="m335.93 467.25c-3.0938 0-6.2188-0.003906-9.375-0.023438-13.141-0.058594-24.992-0.26953-36.938-2.2031-2.8867-0.46484-5.7656-1.0391-8.5469-1.5859-4.5625-0.90234-8.875-1.7539-13.238-2.1992-2.9414-0.30078-5.8945-0.41016-9.0195-0.53125-2.668-0.10547-5.4375-0.20703-8.2031-0.44141-14.668-1.2344-28.586-5.8945-42.043-10.402-8.9258-2.9922-18.152-6.082-26.52-11.719-22.559-15.203-32.617-47.758-22.898-74.117l10.266 3.7852c-7.918 21.477 0.49219 48.961 18.746 61.266 7.1328 4.8086 15.645 7.6562 23.875 10.418 12.848 4.3047 26.129 8.75 39.484 9.875 2.5195 0.21484 5.043 0.30469 7.707 0.41016 3.1562 0.12109 6.4258 0.24609 9.707 0.57812 4.8711 0.49609 9.6406 1.4375 14.25 2.3516 2.6914 0.53125 5.4688 1.082 8.1758 1.5195 11.16 1.8047 22.562 2 35.242 2.0625 48.34 0.22266 88.734-1.1484 128.75-8.5859 16.586-3.0859 33.719-7.4805 46.699-18.68 11.535-9.957 20.031-28.328 13.961-44.172l10.215-3.9102c3.625 9.4727 3.6328 20.164 0.015625 30.93-3.2695 9.7383-9.3242 18.773-17.047 25.434-14.945 12.902-33.754 17.797-51.848 21.16-38.215 7.0938-76.551 8.7812-121.42 8.7812z"/>
  <path d="m454.22 338.17c-20.766-4.8828-42.234-9.9297-63.559-8.4805-8.1914 0.55859-16.199 2.0391-24.668 3.6133-5.1172 0.95312-10.418 1.9375-15.719 2.6797-15.57 2.1914-31.379 2.4062-47.004 0.625l1.2422-10.867c14.699 1.6797 29.582 1.4805 44.238-0.58594 5.0625-0.71484 10.238-1.6719 15.246-2.6016 8.4062-1.5586 17.102-3.1758 25.926-3.7734 22.965-1.5586 45.25 3.6797 66.801 8.75z"/>
  <path d="m198.55 192.76 12.742-9.7969 6.668 8.6719-12.742 9.7969z"/>
  <path d="m256.66 158.36 7.2578-8.1797 10.641 9.4414-7.2578 8.1797z"/>
  <path d="m323.52 206.5 2.8125-19.164 10.82 1.5859-2.8125 19.164z"/>
  <path d="m390.55 184.73-3.8867-10.223c5.3359-2.0273 10.816-3.7891 16.285-5.2266l2.7852 10.578c-5.1016 1.3438-10.211 2.9766-15.184 4.8711z"/>
  <path d="m324.08 148.34c-3.5508-3.0391-7.6719-5.1992-11.918-6.2578l2.6289-10.613c5.8906 1.4609 11.562 4.418 16.402 8.5625z"/>
  <path d="m371.55 148.7c-1.4102-5.9922-2.4727-12.152-3.1562-18.316l10.871-1.207c0.63281 5.7266 1.625 11.453 2.9297 17.02z"/>
  <path d="m442.86 196.43 8.9531-6.2852 9.3594 13.336-8.9531 6.2852z"/>
  <path d="m434.95 154.3 12.77-7.7031 5.6484 9.3633-12.77 7.7031z"/>
  <path d="m265.23 204.23 17.227-1.1758 0.74219 10.914-17.227 1.1758z"/>
  <path d="m147.02 271.94c-4.9258 0-9.8594-0.43359-14.723-1.3086l1.9375-10.762c15.312 2.7578 31.418 0.46484 45.348-6.457l4.8672 9.793c-11.602 5.7617-24.508 8.7344-37.43 8.7344z"/>
  <path d="m396.15 294.07c-3.7422-6.7695-8.1758-13.191-13.184-19.082l8.3359-7.0859c5.4844 6.4492 10.336 13.477 14.426 20.879z"/>
  <path d="m543.17 283.75c-3.1758-5.8125-12.363-9.1172-19.902-10.27-2.4375-0.37109-4.8984-0.62891-7.5078-0.90234-6.6172-0.6875-13.457-1.3984-20.043-4.1406l4.207-10.094c5.1016 2.1289 10.867 2.7227 16.969 3.3594 2.625 0.27344 5.3359 0.55859 8.0352 0.96875 6.293 0.96094 21.613 4.4414 27.84 15.836z"/>
  <use x="70" y="568.203125" xlink:href="#t"/>
  <use x="72.007812" y="568.203125" xlink:href="#d"/>
  <use x="73.355469" y="568.203125" xlink:href="#a"/>
  <use x="75.210937" y="568.203125" xlink:href="#e"/>
  <use x="77.054688" y="568.203125" xlink:href="#c"/>
  <use x="78.363281" y="568.203125" xlink:href="#a"/>
  <use x="80.214844" y="568.203125" xlink:href="#l"/>
  <use x="83.125" y="568.203125" xlink:href="#k"/>
  <use x="85.082031" y="568.203125" xlink:href="#j"/>
  <use x="87.816406" y="568.203125" xlink:href="#i"/>
  <use x="88.835938" y="568.203125" xlink:href="#h"/>
  <use x="90.457031" y="568.203125" xlink:href="#b"/>
  <use x="92.335938" y="568.203125" xlink:href="#g"/>
  <use x="94.28125" y="568.203125" xlink:href="#f"/>
  <use x="96.285156" y="568.203125" xlink:href="#e"/>
  <use x="98.128906" y="568.203125" xlink:href="#s"/>
  <use x="70" y="570.9375" xlink:href="#r"/>
  <use x="71.191406" y="570.9375" xlink:href="#d"/>
  <use x="72.539062" y="570.9375" xlink:href="#b"/>
  <use x="74.417969" y="570.9375" xlink:href="#q"/>
  <use x="78.21875" y="570.9375" xlink:href="#c"/>
  <use x="79.523438" y="570.9375" xlink:href="#p"/>
  <use x="81.472656" y="570.9375" xlink:href="#a"/>
  <use x="84.277344" y="570.9375" xlink:href="#o"/>
  <use x="86.566406" y="570.9375" xlink:href="#b"/>
  <use x="88.445312" y="570.9375" xlink:href="#n"/>
  <use x="90.390625" y="570.9375" xlink:href="#g"/>
  <use x="93.289062" y="570.9375" xlink:href="#f"/>
  <use x="95.292969" y="570.9375" xlink:href="#d"/>
  <use x="96.644531" y="570.9375" xlink:href="#b"/>
  <use x="98.519531" y="570.9375" xlink:href="#m"/>
  <use x="99.457031" y="570.9375" xlink:href="#a"/>
  <use x="101.3125" y="570.9375" xlink:href="#h"/>
  <use x="102.933594" y="570.9375" xlink:href="#c"/>
 </g>
</svg>
