<?xml version="1.0" encoding="UTF-8"?>
<svg width="700pt" height="700pt" fill="#0fa78f" version="1.1" viewBox="0 0 700 700" xmlns="http://www.w3.org/2000/svg" xmlns:xlink="http://www.w3.org/1999/xlink">
  <g>
  <path d="m549.96 202.69c-0.023438-0.10547-0.074219-0.19531-0.10547-0.30078-0.19141-0.67188-0.46484-1.3086-0.81641-1.9141-0.10547-0.18359-0.20703-0.35938-0.33203-0.53906-0.4375-0.64453-0.93359-1.25-1.5469-1.7578-0.023437-0.023437-0.050781-0.039062-0.074218-0.054687-0.63281-0.51562-1.3398-0.89062-2.0703-1.1992-0.089844-0.039063-0.15625-0.11328-0.25391-0.14453l-92.887-35.074c-3.8711-1.4609-8.2266 0.11328-10.27 3.7031-3.8984 6.8555-10.848 10.949-18.562 10.949-11.844 0-21.48-9.6328-21.48-21.477 0-1.4375 0.15625-2.9219 0.46484-4.4141 0.83984-4.0469-1.3906-8.1016-5.2578-9.5664l-19.215-7.2539c-11.324-4.2734-23.98-2.6641-33.863 4.3125l-27.371 19.309c-3.7695 2.6562-4.6914 7.8438-2.0703 11.637 2.6641 3.8633 4.0781 8.3711 4.0781 13.035 0 12.699-10.332 23.031-23.031 23.031-7.4102 0-14.195-3.5-18.609-9.5938-2.6953-3.7305-7.8867-4.5977-11.641-1.9375l-111.68 78.762c-0.29297 0.20703-0.48047 0.50391-0.73828 0.73828-0.375 0.34766-0.76172 0.66797-1.0703 1.0703-0.29297 0.38672-0.48828 0.8125-0.70703 1.2383-0.21094 0.41016-0.44922 0.79688-0.58984 1.2383-0.16406 0.50391-0.20703 1.0312-0.27344 1.5586-0.042969 0.34766-0.17969 0.66016-0.17969 1.0195v132.36c0 5.1797 2.2891 10.039 6.2891 13.34 3.1289 2.5742 7 3.9492 10.969 3.9492 1.1016 0 2.2188-0.10547 3.3203-0.32031l58.285-11.312c4.5547-0.88672 7.5273-5.293 6.6484-9.8438-0.35156-1.8242-0.52734-3.4961-0.52734-5.1055 0-14.797 12.035-26.836 26.836-26.836 12.82 0 23.883 9.1328 26.312 21.723 0.42188 2.1914 1.6953 4.1172 3.543 5.3633 1.8477 1.25 4.1055 1.6953 6.3047 1.2812l238.42-46.262c8.1094-1.5742 13.996-8.707 13.996-16.969l0.003906-135.8c-0.007812-0.66797-0.097656-1.3164-0.24609-1.9492zm-281.3 8.7578c7.2578 6.5625 16.754 10.328 26.641 10.328 21.965 0 39.832-17.871 39.832-39.832 0-5.2734-1.043-10.434-3.0352-15.23l21.285-15.012c5.332-3.7578 12.145-4.625 18.25-2.3242l13.148 4.9609c-0.003906 0.18359-0.003906 0.37109-0.003906 0.55469 0 21.105 17.168 38.277 38.281 38.277 11.188 0 21.762-5.0195 28.957-13.441l59.113 22.32-316.08 61.309zm264.74 129c0 0.23047-0.16406 0.42969-0.39063 0.46875l-230.97 44.816c-6.5625-16.184-22.43-27.238-40.414-27.238-24.031 0-43.586 19.527-43.637 43.547l-50.809 9.8555-0.57812-0.46875 0.003906-125.43 366.8-71.172z"/>
  <path d="m465.64 329.14c23.051 0 41.809-18.762 41.809-41.809 0-23.051-18.762-41.809-41.809-41.809-23.051 0-41.809 18.754-41.809 41.809 0 23.055 18.762 41.809 41.809 41.809zm0-66.816c13.793 0 25.008 11.219 25.008 25.008 0 13.793-11.219 25.008-25.008 25.008-13.793 0-25.008-11.219-25.008-25.008 0.003906-13.793 11.215-25.008 25.008-25.008z"/>
  <path d="m352.65 360.76c18.492 0 33.531-15.047 33.531-33.539 0-18.492-15.047-33.539-33.531-33.539-18.496 0-33.539 15.047-33.539 33.539 0 18.492 15.043 33.539 33.539 33.539zm0-50.27c9.2227 0 16.734 7.5078 16.734 16.738s-7.5078 16.738-16.734 16.738c-9.2305 0-16.738-7.5078-16.738-16.738s7.5039-16.738 16.738-16.738z"/>
  <path d="m223.12 351.73c17.086 0 30.98-13.898 30.98-30.98 0-17.086-13.895-30.984-30.98-30.984s-30.98 13.898-30.98 30.984c0.003907 17.078 13.895 30.98 30.98 30.98zm0-45.164c7.8164 0 14.18 6.3633 14.18 14.184 0 7.8242-6.3633 14.18-14.18 14.18s-14.18-6.3633-14.18-14.18 6.3594-14.184 14.18-14.184z"/>
  <use x="70" y="644" xlink:href="#w"/>
  <use x="90.550781" y="644" xlink:href="#c"/>
  <use x="104.359375" y="644" xlink:href="#a"/>
  <use x="123.347656" y="644" xlink:href="#g"/>
  <use x="142.242188" y="644" xlink:href="#b"/>
  <use x="155.628906" y="644" xlink:href="#a"/>
  <use x="174.617188" y="644" xlink:href="#l"/>
  <use x="204.410156" y="644" xlink:href="#k"/>
  <use x="224.453125" y="644" xlink:href="#f"/>
  <use x="252.453125" y="644" xlink:href="#j"/>
  <use x="274.121094" y="644" xlink:href="#i"/>
  <use x="283.71875" y="644" xlink:href="#h"/>
  <use x="293.316406" y="644" xlink:href="#e"/>
  <use x="313.25" y="644" xlink:href="#g"/>
  <use x="341.890625" y="644" xlink:href="#v"/>
  <use x="365.695312" y="644" xlink:href="#i"/>
  <use x="375.292969" y="644" xlink:href="#a"/>
  <use x="394.28125" y="644" xlink:href="#f"/>
  <use x="412.535156" y="644" xlink:href="#e"/>
  <use x="432.46875" y="644" xlink:href="#h"/>
  <use x="442.066406" y="644" xlink:href="#u"/>
  <use x="70" y="672" xlink:href="#t"/>
  <use x="82.183594" y="672" xlink:href="#c"/>
  <use x="95.992188" y="672" xlink:href="#d"/>
  <use x="115.226562" y="672" xlink:href="#s"/>
  <use x="154.152344" y="672" xlink:href="#b"/>
  <use x="167.535156" y="672" xlink:href="#r"/>
  <use x="187.46875" y="672" xlink:href="#a"/>
  <use x="216.207031" y="672" xlink:href="#q"/>
  <use x="239.640625" y="672" xlink:href="#d"/>
  <use x="258.878906" y="672" xlink:href="#p"/>
  <use x="278.8125" y="672" xlink:href="#e"/>
  <use x="308.492188" y="672" xlink:href="#o"/>
  <use x="329.015625" y="672" xlink:href="#c"/>
  <use x="342.820312" y="672" xlink:href="#d"/>
  <use x="362.058594" y="672" xlink:href="#n"/>
  <use x="371.65625" y="672" xlink:href="#a"/>
  <use x="390.648438" y="672" xlink:href="#m"/>
  <use x="407.242188" y="672" xlink:href="#b"/>
 </g>
</svg>
