<?xml version="1.0" encoding="UTF-8"?>
<svg width="700pt" height="700pt" fill="#0fa78f" version="1.1" viewBox="0 0 700 700" xmlns="http://www.w3.org/2000/svg" xmlns:xlink="http://www.w3.org/1999/xlink">
 
 <g>
  <path d="m352.96 411.43c-0.44531-0.31641 0.5 0.39453 0 0z"/>
  <path d="m196.94 309.47c-0.48047-0.62109-0.0625-0.070312 0 0z"/>
  <path d="m524.3 432.84c-11.594-2.625-16.625 1.4453-23.738-1.2148-8.2695-3.0898-11.797-12.566-17.965-18.875 2.5039-4.1992 4.1914-8.832 4.9805-13.66 1.6602-18.965-0.87109-38.066-7.4141-55.945-5.582-18.82-15.469-58.25-17.012-62.719-1.3398-3.875-5.3125-38.816-6.125-48.125h0.003906c-3.4844-36.684-18.75-71.254-43.512-98.539-24.762-27.285-57.691-45.824-93.863-52.836-40.164-7.9805-82.984-2.5391-114.43 25.426-26.297 23.914-43.508 56.188-48.723 91.348-5.2109 35.16 1.8984 71.039 20.129 101.55 18.457 29.637 44.211 54.043 74.801 70.875 16.605 9.375 34.297 16.684 52.676 21.762 17.336 3.3047 33.883 9.8984 48.738 19.426-1.3047-1.0312 0.46484 0.33984 0.62891 0.47266 14.758 12.094 30.762 22.582 47.742 31.281 10.156 4.668 21.516 6.0469 32.496 3.9453 3.125 5.1211 6.8359 9.8672 11.051 14.141 10.5 12.371-2.25 27.238 3.7266 41.52 13.379 31.965 62.535 24.781 63.789-10.656 35.473 6.3828 46.305-51.41 12.023-59.18zm-111.12 2.9141c-17.91-6.6445-34.418-16.57-48.688-29.27-12.434-9.4023-26.461-16.48-41.41-20.895-17.055-4.1914-33.734-9.7656-49.875-16.676-15.668-7.2305-30.422-16.289-43.953-26.996-6.3828-5.1016-12.457-10.582-18.184-16.414-4.375-4.4258-11.645-12.723-13.613-15.363-0.28125-0.375-0.57031-0.75391-0.875-1.1211-29.227-36.344-38.59-84.785-25.016-129.41 14.141-44.984 48.125-83.082 96.25-89.949 42.992-4.8672 86.156 7.5469 120 34.504 28.035 22.125 47.594 53.23 55.387 88.086 3.6055 18.129 3.5 36.75 5.8711 55.074 1.2617 9.625 12.188 47.129 13.168 52.02 3.6055 17.91 10.703 34.922 13.648 53l0.003907-0.003906c2.3477 10.211 2.082 20.848-0.76953 30.93-3.1562 6.8047-8.0703 12.645-14.238 16.914-13.586 11.508-29.441 20.711-47.73 15.566zm121 28.875c-0.58203 6.6992-4.5391 12.641-10.5 15.75-6.7461 2.8867-11.75-2.1797-17.895-1.375-7.3867 0.96094-4.0508 10.141-4.7422 14.988-1.0547 7.5273-5.9375 13.965-12.898 17.012-6.8398 2.8086-14.633 2.0117-20.762-2.1211-6.1328-4.1328-9.793-11.055-9.7578-18.449 0.59375-8.4688 4.543-16.676 2.2656-25.277v-0.003906c-2.793-6.7656-7.1211-12.789-12.633-17.602-0.73437-0.875-1.8633-2.1719-3.1836-3.5703h-0.003907c4.9414-2 9.6367-4.5547 14-7.6133 6.4062-4.2617 12.348-9.1758 17.738-14.664 0.62109 0.59375 1.2344 1.1797 1.75 1.75 4.8477 6.375 10.719 11.91 17.375 16.371 7.1133 3.7891 22.383-1.9688 31.734 5.5391h0.003906c5.6797 4.6758 8.5156 11.977 7.4805 19.266z"/>
  <path d="m322.76 124.3c0 3.0547 2.4766 5.5312 5.5312 5.5312 3.0508 0 5.5273-2.4766 5.5273-5.5312 0-3.0508-2.4766-5.5273-5.5273-5.5273-3.0547 0-5.5312 2.4766-5.5312 5.5273z"/>
  <path d="m258.62 121.11c0-3.0547-2.4766-5.5312-5.5312-5.5312s-5.5312 2.4766-5.5312 5.5312 2.4766 5.5312 5.5312 5.5312 5.5312-2.4766 5.5312-5.5312z"/>
  <path d="m197.13 208.58c0 3.0547 2.4766 5.5312 5.5312 5.5312 3.0508 0 5.5273-2.4766 5.5273-5.5312 0-3.0547-2.4766-5.5312-5.5273-5.5312-3.0547 0-5.5312 2.4766-5.5312 5.5312z"/>
  <path d="m255.7 185.43c0.11719 2.9648 2.5547 5.3086 5.5234 5.3086s5.4062-2.3438 5.5273-5.3086c-0.12109-2.9648-2.5586-5.3086-5.5273-5.3086s-5.4062 2.3438-5.5234 5.3086z"/>
  <path d="m343.3 174c0.11719 2.9648 2.5586 5.3086 5.5273 5.3086s5.4062-2.3438 5.5234-5.3086c-0.11719-2.9688-2.5547-5.3125-5.5234-5.3125s-5.4102 2.3438-5.5273 5.3125z"/>
  <path d="m242.64 261.75c0 3.0547 2.4766 5.5312 5.5312 5.5312 3.0547 0 5.5312-2.4766 5.5312-5.5312 0-3.0508-2.4766-5.5273-5.5312-5.5273-3.0547 0-5.5312 2.4766-5.5312 5.5273z"/>
  <use x="70" y="691.25" xlink:href="#n"/>
  <use x="102.109375" y="691.25" xlink:href="#b"/>
  <use x="123.683594" y="691.25" xlink:href="#a"/>
  <use x="153.355469" y="691.25" xlink:href="#h"/>
  <use x="182.878906" y="691.25" xlink:href="#c"/>
  <use x="203.792969" y="691.25" xlink:href="#a"/>
  <use x="233.464844" y="691.25" xlink:href="#g"/>
  <use x="280.011719" y="691.25" xlink:href="#f"/>
  <use x="311.328125" y="691.25" xlink:href="#e"/>
  <use x="355.078125" y="691.25" xlink:href="#d"/>
  <use x="388.9375" y="691.25" xlink:href="#m"/>
  <use x="403.9375" y="691.25" xlink:href="#l"/>
  <use x="429.871094" y="691.25" xlink:href="#c"/>
  <use x="450.78125" y="691.25" xlink:href="#k"/>
  <use x="480.839844" y="691.25" xlink:href="#b"/>
  <use x="502.414062" y="691.25" xlink:href="#j"/>
  <use x="533.5625" y="691.25" xlink:href="#i"/>
  <use x="548.558594" y="691.25" xlink:href="#a"/>
  <use x="578.230469" y="691.25" xlink:href="#b"/>
 </g>
</svg>
