<?xml version="1.0" encoding="UTF-8"?>
<svg width="700pt" height="700pt" version="1.1" fill="#815f00" viewBox="0 0 700 700" xmlns="http://www.w3.org/2000/svg" xmlns:xlink="http://www.w3.org/1999/xlink">
 <g>
  <path d="m384.42 157.55c0.52734 1.7461 2.4531 6.6523 1.2266 8.7461-1.2266 2.0938-8.3984 12.426-1.2266 11.727 7.1719-0.69922 15.227-3.8516 12.254-9.8008-2.9727-5.9453-6.4727-10.852-7.6992-14.172-1.2266-3.3203-1.1211-6.4727-1.1211-6.4727s-3.9531-4.375-6.0547-4.0273c0 0-4.0273 3.5-3.3281 6.6523 0.70312 3.1523 5.4297 5.5938 5.9492 7.3477z"/>
  <path d="m376.9 168.58c2.1016-2.2734 5.4258-12.254-1.7461-10.328 0 0-7.5273 8.5742-7.5273 10.328 0 1.75 7.1719 2.2734 9.2734 0z"/>
  <path d="m576.52 265.42c-4.8906-63.645-35.508-120.18-81.496-159.19-1.8359-1.5625-3.707-3.0898-5.6016-4.5938-11.297-8.9883-23.426-16.957-36.281-23.754-21.441-11.328-44.855-19.395-69.59-23.543-12.543-2.1055-25.414-3.2578-38.555-3.2578-15.133 0-29.914 1.5078-44.246 4.2773-12.105 2.3477-23.902 5.5938-35.262 9.75-6.3555 2.3203-12.562 4.9492-18.641 7.8008-6.7969 3.1797-13.418 6.6875-19.84 10.488-0.60547 0.35937-1.2383 0.69531-1.8359 1.0586-3.8867 2.3516-7.6875 4.8281-11.426 7.3984-1.4219 0.98047-2.8164 1.9883-4.2188 3-10.309 7.4258-20.02 15.641-28.969 24.617-41.891 42.043-67.836 99.984-67.836 163.89 0 0.46484 0.035156 0.91797 0.035156 1.3828 0.47656 80.504 42.117 151.39 104.89 192.73 7.8906 5.1953 16.117 9.9219 24.633 14.141 30.992 15.348 65.855 24.023 102.72 24.023 128.08 0 232.28-104.2 232.28-232.28 0-6.0391-0.30859-12.012-0.76172-17.938zm-11.199 0.37891c-1.2539-0.26172-2.3633-0.066406-3.1523 0.83594-3.2656 3.7344-13.531-0.23047-18.664-7.4648-5.1367-7.2344-4.5469-13.418 2.8008-8.8711 4.7422 2.9336 10.832 8.4609 18.762 12.035 0.097656 1.1523 0.16406 2.3125 0.25391 3.4648zm-19.113-73.867c-0.29688 0.57812-0.58203 1.0078-0.60547 1.0859-0.11719 0.34766-2.4531 1.8633-4.1719 3.7344s1.3711 4.8984 4.5234 7.2305c3.1523 2.3281 1.7461 7.6992 5.0195 11.199 3.2695 3.5 0.58203 12.602-1.9805 13.883-2.5703 1.2812-5.3711-1.3984-10.5-3.0352-5.1406-1.6367-0.93359-13.531-1.1719-14.465-0.23047-0.93359-3.1484-5.1367-5.7188-8.5195-2.5703-3.3828-0.34766-3.7344 0-7.582 0.34766-3.8477 10.383-8.5195 10.383-8.5195 0.80469-0.042968 1.3984 0.015625 1.9805 0.089844 0.78125 1.6211 1.4961 3.2617 2.2422 4.8984zm-422.04 101.23c7.5078 3.1758 15.953 4.1055 19.98 3.3438 7.3477-1.3984 4.8984 4.5469 11.898 6.6523s12.602 9.1016 21 17.852c8.3984 8.7539 17.383 4.6719 17.383 4.6719s-0.93359 9.3359-3.2695 12.137c-2.3281 2.8008-14.93-5.6016-3.7305 32.199 11.199 37.801 28 32.195 31.73 34.996 3.7422 2.8008 0.46875 37.336-0.92969 53.664-0.15625 1.8594-0.29297 3.6289-0.39844 5.375-54.238-38.312-90.566-100.34-93.664-170.89zm220.83 211.28c-35.012 0-68.129-8.2148-97.578-22.766 0.23438-0.38672 0.46484-0.75781 0.67578-1.0703 3.7344-5.6016 11.199-5.1367 13.395-7.9336 2.1953-2.8008 8.0703-10.266 15.539-15.926 7.4609-5.6602 8.3984-20.938 9.8008-26.539 1.3984-5.6016 14.93-9.8008 20.531-13.066 5.6016-3.2656 3.7344-20.535 4.1992-26.137 0.46875-5.6016 10.734-14 12.602-21.934 1.8711-7.9336-10.73-12.129-18.199-14.93-7.4609-2.8008-13.066-5.6016-26.129-7-13.07-1.3984-6.5352-17.27-18.672-18.672-12.129-1.3984-6.0664-0.92969-12.129-6.5312-6.0703-5.6016-7.4688-7.9336-16.801-8.3008-9.3398-0.36328-13.535-1.5-18.672-3.3711-5.1289-1.8711-14.93 7-14.93 7s-3.125 2.9453-4 3.207-3.6719-1.2266-5.0742-2.625c-1.3984-1.3984-3.7617 2.8008-5.7734 2.1016-2.0117-0.69922-4.1094-5.7734-6.5625-7.3477-2.4531-1.5742 1.0547-7-1.2266-13.301-2.2773-6.3008-10.148-1.0547-14.699-2.2734-4.5547-1.2227 2.9727-10.852 5.0742-14.527 2.1016-3.6719-2.625-3.6719-6.6523-3.3281-4.0273 0.34766-6.125 8.9258-12.426 8.2266s-8.2266-3.1484-7.875-8.2266c0.35156-5.0781-5.0742-6.3008-0.34766-18.898 4.7266-12.602 19.773-7.1719 23.273-8.9258s9.1016-1.3984 16.453 0.69922c7.3516 2.1016 5.9453 9.8008 6.3008 12.602 0.35156 2.8008 2.8008-9.8008 2.1016-17.5s11.547-8.7461 17.148-13.652c5.6016-4.9062 9.1016-15.746 11.898-20.301 2.8008-4.5547 9.4531-5.2539 11.199-10.5 1.7461-5.2461 10.062-6.9102 11.199-7.7891s2.8906 0.4375 1.7461 3.1484c-1.1406 2.7109 2.4531 2.1914 5.2539 0 2.8008-2.1914 13.066-8.1914 11.082-9.8281-1.9883-1.6367-2.918 1.6367-5.0195 1.1719-2.1016-0.46484-3.8516-2.3359-4.7812-4.5469-0.94141-2.2188 1.3984-3.0352-0.58203-5.6016s-4.082-3.6172-1.5195-5.4805c2.5664-1.8633 14.23 0.93359 19.129-0.23438 4.8984-1.1719 5.6016-2.1016 5.3711 0.23438s-4.082 7.9297-5.4805 9.6836c-1.3984 1.7539 12.945 3.5 16.453 3.5 3.5039 0-1.0547-8.0547-5.6016-10.5-4.5469-2.4453 0.34766-10.5-1.0547-15.656-1.3984-5.1562-10.852-11.531-11.781-14.559-0.92969-3.0312-2.1016-12.602-3.9648-15.871s-3.5 1.8711-5.3633 4.1992c-1.8711 2.3281-5.1367 0.46875-6.3008-0.92969-1.1719-1.3984-1.1719-1.6367-1.6367-8.3984-0.46484-6.7656-13.066-12.836-17.734-13.07-4.6602-0.23437 1.1719 8.8711-0.46484 12.371s-5.3633 2.8008-3.2656 10.266c2.1016 7.4648-7.9336 14.465-11.434 16.801-3.5 2.3359 1.8633 14.934-2.5664 14.234-4.4414-0.69922-6.5352-7.6992-7.6992-10.969-1.1719-3.2695 3.0312-4.4297 2.5664-6.3008s-1.8633 0-4.4336-1.6289c-2.5586-1.6289-2.5664-2.3359-6.3008-3.5-3.7305-1.1641-1.8633-3.2695-3.9648-5.3711-2.1016-2.1016-6.0664-2.1016-8.1641-2.1016-0.25781 0-0.45312-0.050782-0.60547-0.14453 10.863-12.102 23.066-22.977 36.34-32.445 0.70703-0.50391 1.4062-1.0117 2.1172-1.5117 9.5078-6.625 19.539-12.555 30.055-17.645-0.30078 2.168-1.1094 4.0195-2.8047 4.6211-3.9688 1.3984-1.8711 6.7656-5.1367 7.2305-3.2656 0.46484-9.1016 2.1016-10.035 5.1367-0.92969 3.0352 10.734 3.2656 12.602 3.0352 1.8711-0.23047 7.9336 10.266 10.969 13.531 3.0312 3.2656 8.3984-3.5 9.8008-7.4648 1.3984-3.9648-4.8984-12.363-4.6719-14.699 0.24219-2.3359 8.3984 5.3633 8.3984 5.3633s5.1367-5.3633 6.5352-7.2305c1.3984-1.8633-3.9648-5.3711-7-8.6367-3.0352-3.2656-3.0352-1.3984-3.5-7.2344-0.003906-0.078125 0-0.14453-0.003906-0.22266 11.77-4.6406 24-8.3477 36.652-10.926 3.9531 3.4453 0.18359 15.926-3.2812 23.289-3.7305 7.9297-1.8594 10.73-0.92969 13.531 0.92969 2.8008 11.672 37.328 18.43 29.863 6.7695-7.4648 14-31.969 21-32.434s7.9336-6.7695 14.234-8.3984c6.3008-1.6289 10.035 0.46484 16.566-4.1992 4.9766-3.5547 7.2461-15.348 10.73-23.664 22.328 3.3164 43.578 9.9531 63.223 19.441-1.4102 1.293-2.8008 2.7422-4.1836 4.457-6.7695 8.3984-8.8711 14.469-12.371 21.934-3.5 7.4648-13.238 14.117-16.039 18.492-2.8008 4.375-2.8008 17.852 1.5742 17.852s10.672-5.6016 11.547-4.1992c0.875 1.3984 6.125 12.254 9.8008 11.547 3.6719-0.70703 10.672-15.574 9.4531-22.227-1.2227-6.6523-0.69922-8.3984 0.875-10.328 1.5742-1.9258 0.875-9.1016 6.3008-9.4531 5.4258-0.35156 10.328-4.7266 6.3008 2.625-4.0273 7.3516-5.4258 8.7461-4.0273 11.898s0 8.5742 7.3477 7.1719c7.3477-1.3984 12.254-0.875 12.254 0s-11.199 3.1484-13.828 9.4531c-2.625 6.3047-2.625 6.8281-3.3281 10.672-0.69922 3.8477-4.7266 6.125-4.7266 6.125l-20.652 3.3281s-4.3672-4.4336-6.707-2.8008c-2.3281 1.6367-5.2539 2.4453-8.3984 4.6641-3.1484 2.2188-9.918 8.0547-11.316 10.969-1.3984 2.918-4.8984 5.7188-10.5 7.1172-5.6016 1.3984-10.5 1.6289-8.0547 3.2656 2.4453 1.6367 8.2812 4.0898 8.2812 8.8711s1.6289 8.7461-0.93359 9.4531c-2.5664 0.70703-14.934-1.6289-17.266 3.2695-2.3359 4.8984-3.5 10.258-3.7344 14.23-0.23438 3.9688-0.69922 7.707 7 7.4688 7.6992-0.23437 12.836-1.6641 15.398-3.2812 2.5664-1.6172 1.8633-4.8828 6.3008-9.3203 4.4336-4.4336 5.8359-2.5664 6.0664-6.3008 0.23438-3.7344-0.69922-7.6992 2.1016-7 2.8008 0.69922 5.3711-2.5703 8.3984-1.1719 3.0352 1.3984 4.8984-3.5 9.5703 1.6367 4.6641 5.1367 10.031 8.4062 11.43 11.434 1.3984 3.0312 6.3008 4.8984 4.6719 8.8633-1.6367 3.9648 4.8984-7.1172 4.5469-10.266-0.35156-3.1484-6.6523-7.6992-7.4688-8.9805s-5.0195-8.2812-0.23047-6.6523c4.7812 1.6367 11.781 8.2812 12.129 10.852 0.34766 2.5703 3.6172 11.199 6.418 14.699 2.8008 3.5 6.6523 4.7812 7 4.6641 0.34766-0.11719-1.9805-8.3984-0.23438-12.02 1.7461-3.6172 5.7188-5.1367 7.3477-4.1992 1.6289 0.93359 1.8633 2.5664 3.7344 1.3984 1.8633-1.1641 4.3164-2.3359 3.9648-5.8359-0.35156-3.5 0.69531-7.8164 1.6367-9.8008 0.92969-1.9805 4.082-8.3984 5.8281-5.7188 1.7461 2.6836 3.6172 5.9453 6.3008 6.0664 2.6836 0.11719 2.2188-3.1484 8.6367-0.81641 6.418 2.3281 19.137 6.7695 15.055 10.383-4.082 3.6133-6.8828 6.5312-10.617 5.0195-3.7344-1.5195-7.8164-4.3164-12.371-3.3828-4.5547 0.93359-20.531 2.5664-20.066 8.3984 0.46484 5.8359 5.8359 14.699 14.934 12.137 9.1016-2.5664 12.02-1.9805 13.066 0s2.1055 14.934-8.2812 16.453c0 0-31.73-5.1289-35-6.0664-6.0664-0.93359-2.8008 7-2.8008 8.8633s-26.129-4.8164-26.129-8.9414c0-4.1289 9.8008-15.32-17.27-11.121-27.066 4.1992-34.531 9.5078-41.531 20.391-7 10.879-23.801 14.609-22.871 34.676 0.93359 20.066-3.7305 21.934 7.9336 32.664 11.664 10.73 11.664 20.059 44.801 10.73 33.137-9.3281 13.066-0.74609 16.336 3.832 3.2656 4.5703 9.3281 0.37109 10.266 4.5703 0.93359 4.1992-6.5352 12.602 0.93359 21 7.4648 8.3984 11.664 29.398 7.4648 35-4.1992 5.6016 5.1367 17.734 3.7344 29.871-1.3984 12.137 9.1016 13.535 10.965 22.637 1.8633 9.1016 6.7656 17.266 29.637 5.6016 22.863-11.664 11.199-22.637 17.5-25.434 6.3008-2.8008 2.5703-15.629 10.5-20.531 7.9297-4.8984 18.199-7.4688 12.129-30.805-6.0664-23.336 6.0703-23.328 15.871-33.363s24.73-31.734 16.102-29.637c-8.6367 2.1016-15.398 7.707-24.5-4.4297-9.1016-12.137-35.469-52.5-26.137-47.602 9.3359 4.8984 31.5 32.199 31.5 46.898 0 0 6.7656 2.3359 23.102-9.8008 5.0195-3.7227 9.1992-6.4805 12.68-8.7578-2.2188 119.99-100.45 216.93-220.96 216.93z"/>
  <use x="70" y="644" xlink:href="#u"/>
  <use x="90.550781" y="644" xlink:href="#d"/>
  <use x="104.359375" y="644" xlink:href="#a"/>
  <use x="123.347656" y="644" xlink:href="#g"/>
  <use x="142.242188" y="644" xlink:href="#c"/>
  <use x="155.628906" y="644" xlink:href="#a"/>
  <use x="174.617188" y="644" xlink:href="#l"/>
  <use x="204.410156" y="644" xlink:href="#k"/>
  <use x="224.453125" y="644" xlink:href="#j"/>
  <use x="252.453125" y="644" xlink:href="#b"/>
  <use x="281.625" y="644" xlink:href="#i"/>
  <use x="301.5625" y="644" xlink:href="#f"/>
  <use x="321.492188" y="644" xlink:href="#h"/>
  <use x="341.539062" y="644" xlink:href="#g"/>
  <use x="360.429688" y="644" xlink:href="#f"/>
  <use x="380.367188" y="644" xlink:href="#h"/>
  <use x="410.15625" y="644" xlink:href="#t"/>
  <use x="428.777344" y="644" xlink:href="#s"/>
  <use x="438.375" y="644" xlink:href="#b"/>
  <use x="70" y="672" xlink:href="#r"/>
  <use x="82.183594" y="672" xlink:href="#d"/>
  <use x="95.992188" y="672" xlink:href="#e"/>
  <use x="115.226562" y="672" xlink:href="#b"/>
  <use x="154.152344" y="672" xlink:href="#c"/>
  <use x="167.535156" y="672" xlink:href="#q"/>
  <use x="187.46875" y="672" xlink:href="#a"/>
  <use x="216.207031" y="672" xlink:href="#p"/>
  <use x="239.640625" y="672" xlink:href="#e"/>
  <use x="258.878906" y="672" xlink:href="#i"/>
  <use x="278.8125" y="672" xlink:href="#f"/>
  <use x="308.492188" y="672" xlink:href="#o"/>
  <use x="329.015625" y="672" xlink:href="#d"/>
  <use x="342.820312" y="672" xlink:href="#e"/>
  <use x="362.058594" y="672" xlink:href="#n"/>
  <use x="371.65625" y="672" xlink:href="#a"/>
  <use x="390.648438" y="672" xlink:href="#m"/>
  <use x="407.242188" y="672" xlink:href="#c"/>
 </g>
</svg>
