<?xml version="1.0" encoding="UTF-8"?>
<svg width="700pt" height="700pt" fill="#815f00" version="1.1" viewBox="0 0 700 700" xmlns="http://www.w3.org/2000/svg" xmlns:xlink="http://www.w3.org/1999/xlink">
 <g>
  <path d="m140.57 39.211c-28.148 20.812-54.859 69-58.688 114.64-2.8633 33.961 4.8906 68.113 19.465 101.54h-83.172c-6.7891 0-12.293 5.5039-12.289 12.289 0.011719 6.7773 5.5117 12.266 12.289 12.266h199.54c3.8828 0.007813 7.5391-1.8164 9.8672-4.9219l47.887-64.16 70.93 142.44c4.5234 9.082 17.488 9.082 22.012 0l68.816-138.21 28.898 58.039c2.0742 4.1719 6.332 6.8125 10.992 6.8164h79.812c6.7812 0 12.277-5.4883 12.289-12.266 0-6.7852-5.5-12.289-12.289-12.289h-72.203l-36.508-73.355c-2.0742-4.1719-6.332-6.8125-10.992-6.8164-4.6797-0.011719-8.957 2.6289-11.043 6.8164l-68.793 138.21-68.816-138.21c-4.0898-8.1719-15.355-9.1836-20.836-1.8711l-56.168 75.227h-83.148c-16.355-34-24.73-67.48-22.035-99.445 2.8516-33.785 17.672-66.434 50.383-98.172 28.742-24.184 65.793-35.996 103.14-32.789 37.477 3.2305 72.152 21.277 96.398 50.191l22.25 26.523c4.9141 5.8398 13.906 5.8398 18.82 0l22.227-26.523c50.555-60.277 139.73-67.945 199.78-17.258 38.539 34.742 52.074 72.332 49.926 113.27-2.1523 41.016-21.141 85.699-50.648 130.22-57.258 86.395-152.83 170.44-230.62 230.14-65.062-52.121-167.37-140.54-225.58-222.37-3.9297-5.5312-11.602-6.832-17.137-2.9062-5.5391 3.9297-6.8398 11.605-2.9062 17.137 63.246 88.91 172.6 182.06 237.9 233.91 4.3906 3.4961 10.594 3.5781 15.074 0.19141 80.16-60.812 181.8-149.06 243.75-242.53 30.973-46.734 52.234-94.996 54.727-142.53 2.4961-47.535-14.922-94.066-58.258-133.03-0.09375-0.078126-0.17578-0.14453-0.26563-0.21484-70.203-59.355-175.48-50.285-234.59 20.188l-12.816 15.289-12.793-15.289c-28.422-33.898-69.113-55.109-113.11-58.906-43.555-2.2656-90.535 14.043-121.48 38.719z"/>
  <use x="5.890625" y="744.347656" xlink:href="#e"/>
  <use x="235.484375" y="744.347656" xlink:href="#b"/>
  <use x="300.863281" y="744.347656" xlink:href="#d"/>
  <use x="406.296875" y="744.347656" xlink:href="#a"/>
  <use x="453.855469" y="744.347656" xlink:href="#b"/>
  <use x="528.144531" y="744.347656" xlink:href="#c"/>
  <use x="655.8125" y="744.347656" xlink:href="#a"/>
 </g>
</svg>
