<?xml version="1.0" encoding="UTF-8"?>
<svg width="700pt" height="700pt" fill="#fdc92e" version="1.1" viewBox="0 0 700 700" xmlns="http://www.w3.org/2000/svg">
 <path d="m531.03 184.86c-25.004 32.699-13.465 96.766-18.938 139.23-5.3281 40.984-23.672 139.97-80.047 131.24-28.41-32.254 76.645-179.77 12.723-208.33-28.852-11.688-53.859 47.199-57.262 72.352-3.6992 27.227-7.1016 54.301-23.082 72.797-19.531 22.785-34.621 27.078-30.629-8.4336 1.7773-15.832 5.7695-30.629 2.8125-43.5-5.6211-24.266-31.664-33.586-43.945-7.9883-8.7305 18.199 1.9219 43.055-14.203 60.961-20.27 22.637-22.195 13.613-25.004-5.7695-8.1367-58.445-34.477-17.016-54.301 8.1367-9.3203 11.836-13.465 18.496-28.41 6.9531-24.414-18.938-36.102 0.14844-57.852 17.164-29.594 23.082-18.789 12.578-39.949 3.5508-25.746-10.801-59.184 27.965-73.094 46.164 16.422 6.8047 27.227-11.395 41.727-26.781 12.281-13.168 13.465-14.055 29.594-5.0312 10.504 5.7695 16.719 10.801 34.621 0.14844 10.652-6.3633 19.383-14.945 29.887-22.934 16.129-12.133 15.535-13.02 30.922-1.332 10.801 8.1367 17.902 12.871 35.953-2.5156 11.098-9.4688 13.465-18.645 18.051-26.039 11.984-19.086 17.754-15.238 21.602 2.8125 5.0312 23.527 11.836 53.711 42.613 13.762 20.566-26.781 10.062-45.422 15.832-60.07 9.3203-23.527 21.453-13.316 25.152 7.9883 3.2539 18.348-4.7344 27.965-3.2539 46.016 2.8125 35.215 21.898 31.812 44.684 11.395 36.25-32.551 23.379-100.02 46.754-132.28 23.672-32.699 40.246-12.133 39.801 21.453-0.44531 34.031-17.164 74.867-27.371 98.691-30.629 72.059 10.949 98.098 54.004 48.828 59.777-68.359 30.48-183.47 54.449-239.7 24.855-58.297 39.801 2.5156 42.316 32.402 6.9531 83.746-48.977 167.93-45.422 230.52 2.0703 36.102 15.98 47.496 47.938 25.449 80.492-55.336 38.617-293.55 63.621-394.02 14.5-57.852 30.777-40.395 40.984 6.2148 20.715 94.25 1.0352 282.31-29.887 371.53-4.8828 15.684-21.75 42.02-6.3633 54.004 30.777-118.66 54.598-188.35 51.195-317.23-0.59375-25.301-0.29688-182.58-44.535-160.98-40.688 19.977-24.117 232.45-39.211 326.55-3.8477 24.266-6.3633 52.676-17.016 74.426-7.9883 16.277-37.137 60.07-55.93 31.961-25.152-37.73 67.469-176.81 37.582-281.12-8.7305-30.629-22.637-54.449-49.715-19.086z" fill-rule="evenodd"/>
</svg>
