<?xml version="1.0" encoding="UTF-8"?>
<svg width="700pt" height="700pt" fill="#0fa78f" version="1.1" viewBox="0 0 700 700" xmlns="http://www.w3.org/2000/svg" xmlns:xlink="http://www.w3.org/1999/xlink">
  <path  transform="matrix(.011024 0 0 .011024 70 0)" d="m5708 34009c-1273.8-591.04-2725.9-1413.1-3483.1-3112.9-756.87-1700.1-817.11-4276.9 547.1-6809 1364.9-2533.2 4155-5018.9 7794-6854 3639.1-1835.1 8127.1-3016.8 13692-3154 5564.9-136.07 12206 773.88 16421 1729.2 4214.9 954.94 6005 1955.9 6975.2 3442 969.83 1486.1 1121.8 3456.9 166.89 4852-954.94 1395-3017.9 2213.9-5786 2399.9-2769.2 187.09-6244.2-259.02-9050.9 102.05-2807.1 361.07-4945.2 1527.9-6603.1 2949.2-1659 1420.9-2839 3095.1-4573.1 4151.1-1734.8 1057-4024.9 1497.1-6222.9 1664-2199 166.89-4305.9 59.883-5907.9-172.92-1600.9-233.86-2696.2-594.93-3968.9-1186zm0 0" fill="none" stroke="#0fa78f" stroke-linecap="round" stroke-linejoin="round" stroke-width="762"/>
 <path transform="matrix(.011024 0 0 .011024 70 0)" d="m49098 25611c49.962 869.9-149.18 1730.9-636.04 2442.1-954.94 1395-3017.9 2213.9-5786 2399.9-2769.2 187.09-6244.2-259.02-9050.9 102.05-2806 361.07-4944.1 1527.9-6603.1 2949.2-1659 1420.9-2839 3095.1-4573.1 4151.1-1734.8 1057-4024.9 1497.1-6222.9 1664-2199 166.89-4305.9 59.883-5907.9-172.92-1600.9-233.86-2695.1-594.93-3968.9-1186-1137.1-527.96-2415.9-1239.1-3216-2594.1" fill="none" stroke="#0fa78f" stroke-linecap="round" stroke-linejoin="round" stroke-width="762"/>
 <path transform="matrix(.011024 0 0 .011024 70 0)" d="m1695.2 28410c10.985 939 23.032 1879.1 88.939 2780.9 65.907 902.15 188.15 1766 422.02 2455.9 233.86 688.83 581.12 1204 926.95 1718.9" fill="none" stroke="#0fa78f" stroke-linecap="round" stroke-linejoin="round" stroke-width="762"/>
 <path transform="matrix(.011024 0 0 .011024 70 0)" d="m48196 20355c295.16 803.99 591.04 1608 740.92 2483.9 150.95 875.93 155.91 1824.1 160.87 2772" fill="none" stroke="#0fa78f" stroke-linecap="round" stroke-linejoin="round" stroke-width="762"/>
 <path transform="matrix(.011024 0 0 .011024 70 0)" d="m12678 22948c-1054.9 388-2032.1 864.94-2721 1405-688.13 537.89-1087.1 1137.1-1221.1 1814.9-132.88 677.14 0 1431.9 478 2053 476.94 622.93 1299 1110.9 2487.1 1178.2 1188.1 65.907 2742.9-289.85 4040.9-887.97 1299-599.9 2342.9-1443.9 2999.1-2277 655.17-831.99 920.93-1654.1 822.07-2286.9-100.99-632.85-568-1077.9-1222.1-1377-655.17-299.06-1498.9-454.97-2487.1-383.04-988.96 71.931-2121.1 372.06-3175.9 761.12zm0 0" fill="none" stroke="#0fa78f" stroke-linecap="round" stroke-linejoin="round" stroke-width="762"/>
 <path transform="matrix(.011024 0 0 .011024 70 0)" d="m11923 24483c-610.17 225.01-1175 501.03-1572.9 812.14-396.86 311.11-627.89 656.94-705.13 1048.8-76.892 390.84 0 828.09 276.03 1187 274.97 358.95 750.14 642.06 1436.8 679.98 686 38.977 1585-166.89 2336.2-513.08 750.14-346.9 1352.9-834.11 1732-1316 379.14-480.84 532.93-956.01 475.17-1321-58.112-366.03-327.05-622.93-705.84-795.84-379.14-172.92-866-262.92-1436.8-221.11-570.84 41.103-1226 214.02-1835.1 439.03zm0 0" fill="none" stroke="#0fa78f" stroke-linecap="round" stroke-linejoin="round" stroke-width="762"/>
 <path transform="matrix(.011024 0 0 .011024 70 0)" d="m11980 18846c-1192 439.03-2611.8 1150.9-3837.8 2073.9-1227.1 923.05-2260 2058-3025 3121s-1261.1 2055.9-1192 3172c69.096 1116.2 701.95 2357.1 1970.1 3239 1267.8 881.95 3169.9 1405 5017.1 1818.1 1846.1 413.87 3638 716.83 5292 688.83 1653-26.93 3168.9-385.87 4162.1-1172.2 992.15-784.86 1459.9-1997.1 1722.1-3540.9 261.86-1543.1 317.13-3416.9 261.86-4849.8-54.923-1432.9-221.11-2426.2-799.03-3239-578.99-812.85-1571.8-1447.1-2714.9-1763.9-1144.2-317.13-2440-317.13-3570-233.86-1130 82.915-2094.1 248.04-3286.1 687.06zm0 0" fill="none" stroke="#0fa78f" stroke-linecap="round" stroke-linejoin="round" stroke-width="762"/>
 <path transform="matrix(.011024 0 0 .011024 70 0)" d="m22736 15913c605.92-233.86 1983.9-233.86 3927.1-137.13 1942.8 96.026 4451.9 288.08 6505 577.93 2053 289.14 3652.2 675.02 4271.9 1295.1 620.09 620.09 261.15 1475.1-716.83 2385.1-977.97 908.88-2577.1 1873-4326.8 2134.9-1750.1 261.86-3652.2-178.94-5333.9-1143.1-1681-964.86-3140.9-2454.2-3954.1-3432.1-812.85-977.97-979.04-1447.1-372.06-1681zm0 0" fill="none" stroke="#0fa78f" stroke-linecap="round" stroke-linejoin="round" stroke-width="762"/>
 <path transform="matrix(.011024 0 0 .011024 70 0)" d="m25505 22810c-454.97 206.93-840.14 660.84-1102 1370.9-261.86 710.09-400.05 1673.9-503.16 2555.8-104.18 881.95-171.85 1682 152.01 1915.9 323.87 233.86 1040-97.089 1632.1-490.05 593.16-392.96 1062-846.87 1682-1178.2 620.09-330.95 1391.1-536.82 1928-861.04 537.89-323.87 841.91-765.02 841.91-1184.9 0-420.95-304.02-819.94-875.93-1192-571.9-372.06-1412-716.83-2094.9-908.88-682.1-193.11-1205.1-234.93-1660.1-27.993zm0 0" fill="none" stroke="#0fa78f" stroke-linecap="round" stroke-linejoin="round" stroke-width="762"/>
 <path transform="matrix(.011024 0 0 .011024 70 0)" d="m40069 17810c537.89-109.85 1364.9 26.93 2316 357.88 951.05 330.95 2026.1 853.96 2853.1 1419.1 827.03 565.17 1405 1172.2 1555.9 1847.2 152.01 675.02-122.96 1419.1-1088.2 2136-964.86 716.12-2617.9 1406-4134.1 1695.9-1515.9 289.14-2893.9 177.88-3611.1-97.089-716.12-276.03-771.04-716.83-620.09-1378 152.01-661.9 509.89-1543.9 827.03-2440s592.1-1805 853.96-2438.9c261.86-633.91 509.89-992.15 1047.1-1102zm0 0" fill="none" stroke="#0fa78f" stroke-linecap="round" stroke-linejoin="round" stroke-width="762"/>
 <g>
  <use x="70" y="560.164062" xlink:href="#w"/>
  <use x="70.039062" y="560.164062" xlink:href="#b"/>
  <use x="70.066406" y="560.164062" xlink:href="#a"/>
  <use x="70.105469" y="560.164062" xlink:href="#e"/>
  <use x="70.140625" y="560.164062" xlink:href="#c"/>
  <use x="70.167969" y="560.164062" xlink:href="#a"/>
  <use x="70.207031" y="560.164062" xlink:href="#k"/>
  <use x="70.265625" y="560.164062" xlink:href="#j"/>
  <use x="70.304688" y="560.164062" xlink:href="#i"/>
  <use x="70.359375" y="560.164062" xlink:href="#h"/>
  <use x="70.402344" y="560.164062" xlink:href="#v"/>
  <use x="70.421875" y="560.164062" xlink:href="#a"/>
  <use x="70.457031" y="560.164062" xlink:href="#u"/>
  <use x="70.511719" y="560.164062" xlink:href="#t"/>
  <use x="70.566406" y="560.164062" xlink:href="#g"/>
  <use x="70.605469" y="560.164062" xlink:href="#b"/>
  <use x="70.632812" y="560.164062" xlink:href="#e"/>
  <use x="70.671875" y="560.164062" xlink:href="#f"/>
  <use x="70.707031" y="560.164062" xlink:href="#a"/>
  <use x="70.746094" y="560.164062" xlink:href="#f"/>
  <use x="70" y="560.21875" xlink:href="#s"/>
  <use x="70.023438" y="560.21875" xlink:href="#b"/>
  <use x="70.050781" y="560.21875" xlink:href="#d"/>
  <use x="70.089844" y="560.21875" xlink:href="#r"/>
  <use x="70.164062" y="560.21875" xlink:href="#c"/>
  <use x="70.191406" y="560.21875" xlink:href="#q"/>
  <use x="70.230469" y="560.21875" xlink:href="#a"/>
  <use x="70.289062" y="560.21875" xlink:href="#p"/>
  <use x="70.332031" y="560.21875" xlink:href="#d"/>
  <use x="70.371094" y="560.21875" xlink:href="#g"/>
  <use x="70.410156" y="560.21875" xlink:href="#o"/>
  <use x="70.46875" y="560.21875" xlink:href="#n"/>
  <use x="70.511719" y="560.21875" xlink:href="#b"/>
  <use x="70.535156" y="560.21875" xlink:href="#d"/>
  <use x="70.574219" y="560.21875" xlink:href="#m"/>
  <use x="70.59375" y="560.21875" xlink:href="#a"/>
  <use x="70.632812" y="560.21875" xlink:href="#l"/>
  <use x="70.664062" y="560.21875" xlink:href="#c"/>
 </g>
</svg>
