<?xml version="1.0" encoding="UTF-8"?>
<svg width="700pt" height="700pt" version="1.1" fill="#fdc92e" viewBox="0 0 700 700" xmlns="http://www.w3.org/2000/svg" xmlns:xlink="http://www.w3.org/1999/xlink">
 
 <g>
  <path d="m525.94 363.63c1.1797-2.5625 2.3945-5.2148 3.1953-8.0039l3.8516-12.512c0.74609-2.7891 1.2383-5.6562 1.7188-8.4297 0.25391-1.4961 0.51172-2.9883 0.82031-4.5195 0.12109-0.75391 0.26172-1.4961 0.40625-2.2422 0.27344-1.4297 0.53906-2.8555 0.69922-4.3633l0.38281-6.4883c1.4023-16.625 0.066406-34.312-3.9844-52.59-4.1641-18.398-11.32-34.707-21.281-48.465-10.172-14.184-23.941-26.293-39.812-35.031-36.266-19.961-76.156-20.691-103.25-17.805-35.375 3.8359-69.453 15.816-98.535 34.652-15.324 9.9844-28.492 21.512-39.133 34.258-10.652 12.633-19.215 27.695-25.449 44.777-6.168 16.613-8.8906 34.004-7.8672 50.266 0.76562 16.406 6.0273 32.93 15.215 47.797 16.93 26.598 46.352 45.391 80.699 51.551 29.781 5.6406 61.707 2.4414 92.32-9.2656 30.371-11.449 55.016-29.18 71.27-51.277 17.043-22.562 25.223-51.168 22.445-78.496-2.832-26.984-16.633-51.297-36.895-65.004-9.6016-6.6953-20.945-11.41-32.801-13.625-12.305-2.3945-24.359-1.75-33.477-0.91016-22.859 1.8281-42.516 6.8359-58.414 14.887-15.902 7.918-29.41 20.062-38.051 34.215-0.33984 0.56641-0.70312 1.1172-1.0625 1.6719-0.70312 1.0859-1.3984 2.1641-1.9766 3.3281l-4.7109 10.062-2.3945 7.1445c-0.83984 2.4609-1.7031 5-2.1328 7.5117l-1.5859 7.1562c-0.31641 1.2148-0.44531 2.332-0.55859 3.3164-0.042969 0.41406-0.085938 0.79688-0.15234 1.2109l-0.25781 2.0703-18.203-2.2461c-0.52734-0.054687-1.0469 0.14062-1.3789 0.53906-0.33984 0.40234-0.44922 0.94922-0.29687 1.4531 4.3828 14.473 10.859 28.242 19.809 42.086 0.28516 0.44531 0.78516 0.71094 1.3047 0.71094 0.054687 0 0.10938 0 0.16406-0.007813 0.58203-0.066406 1.082-0.44922 1.293-1.0039 5.293-14.047 12.086-26.641 19.641-36.41 0.33984-0.44531 0.41797-1.0391 0.19922-1.5547-0.21094-0.51172-0.6875-0.875-1.2461-0.94141l-18.199-2.2461 0.25-2.0117c0.0625-0.40234 0.10938-0.83203 0.16406-1.293 0.097656-0.85547 0.19922-1.8281 0.49219-2.9336l1.6094-7.2969c0.40234-2.332 1.1914-4.6484 2.0312-7.1016l2.332-6.9922 4.6289-9.8672c0.50391-1.0312 1.1406-2.0039 1.7812-2.9844 0.375-0.58203 0.75391-1.168 1.1055-1.7578 8.3359-13.648 21.402-25.383 36.793-33.051 15.543-7.8672 34.805-12.766 57.277-14.566 8.9453-0.8125 20.703-1.4531 32.629 0.86719 11.438 2.1328 22.359 6.6719 31.621 13.133 19.531 13.215 32.824 36.676 35.559 62.762 2.7031 26.543-5.2578 54.352-21.84 76.312-15.906 21.625-40.074 38.992-69.879 50.227-30.086 11.504-61.426 14.648-90.652 9.1133-33.512-6.0078-62.18-24.293-78.629-50.141-8.9023-14.402-14-30.414-14.746-46.312-0.99219-15.852 1.6641-32.801 7.6797-49.02 6.1133-16.746 14.5-31.492 24.918-43.852 10.445-12.516 23.383-23.836 38.438-33.645 28.676-18.574 62.277-30.395 97.172-34.168 26.645-2.8438 65.863-2.1445 101.42 17.426 15.465 8.5117 28.875 20.312 38.785 34.125 9.7109 13.422 16.699 29.348 20.762 47.324 3.9844 17.969 5.3047 35.348 3.918 51.691l-0.38281 6.4648c-0.14062 1.3477-0.39453 2.6875-0.64844 4.0273-0.14453 0.77344-0.29688 1.543-0.41406 2.2656-0.30469 1.5117-0.56641 3.0312-0.82812 4.5508-0.46875 2.7031-0.94922 5.5-1.6406 8.1016l-3.8477 12.488c-0.74219 2.5898-1.8594 5.0117-3.0391 7.582-0.64844 1.4141-1.3008 2.8242-1.8516 4.1914-7.6562 16.418-17.281 30.613-28.609 42.211-12.762 13.277-25.977 24.039-39.309 32-15.258 9.3867-30.473 16.691-45.301 21.734-5.2969 2.125-10.906 3.6836-16.328 5.1836-2.5039 0.69141-5 1.3867-7.3281 2.0977-2.5781 0.5-5.1406 1.0586-7.6992 1.6094-5.4219 1.1836-11.027 2.3984-16.648 2.9844-32.848 4.8867-65.863 2.5586-95.43-6.7578-14.305-4.6797-28.328-11.625-41.625-20.598-13.605-10.336-23.977-20.902-31.727-32.312-15.359-22.125-23.887-49.797-25.344-82.242-1.1602-28.777 2.1875-55.957 9.9414-80.797 7.6914-24.695 20.191-47.25 36.141-65.23 14.316-16.426 31.938-30.766 52.367-42.621 39.223-22.539 78.117-31.355 103.95-36.027 7.7109-1.3555 14.953-2.4375 21.523-3.2148l13.004-1.4062 1.6328 18.238c0.046875 0.53906 0.375 1.0195 0.86719 1.2578 0.21875 0.10156 0.44922 0.15625 0.67969 0.15625 0.29688 0 0.58984-0.085937 0.84375-0.25 12.336-8.0156 24.906-15.211 37.375-21.402 0.52344-0.26172 0.85547-0.79687 0.86328-1.3789 0.007813-0.58984-0.32031-1.125-0.84375-1.3984-12.73-6.5547-26.602-12.68-41.242-18.211-0.49219-0.19922-1.0625-0.10156-1.4883 0.21094-0.42578 0.32031-0.65625 0.84375-0.60938 1.3789l1.6367 18.293-13.094 1.4219c-6.6289 0.78516-13.926 1.8789-21.703 3.2383-26.066 4.7148-65.309 13.617-104.96 36.398-20.727 12.031-38.609 26.59-53.137 43.258-16.234 18.297-28.953 41.246-36.773 66.359-7.8633 25.176-11.258 52.711-10.086 81.848 1.4883 33.055 10.203 61.281 25.891 83.879 7.9297 11.68 18.527 22.484 32.477 33.078 13.605 9.1875 27.891 16.262 42.48 21.031 19.828 6.2461 41.156 9.4062 62.926 9.4062 11.211 0 22.543-0.83984 33.844-2.5234 5.7227-0.58984 11.418-1.8281 16.922-3.0273 2.5352-0.55469 5.0742-1.1055 7.7852-1.6406 2.4531-0.74219 4.9336-1.4297 7.4141-2.1133 5.5-1.5195 11.191-3.0977 16.57-5.2617 14.973-5.0859 30.398-12.492 45.836-21.992 13.551-8.0938 26.992-19.031 39.934-32.496 11.562-11.836 21.383-26.328 29.223-43.137 0.60547-1.3789 1.2344-2.7539 1.8672-4.1211zm-242.51-57.762c-6.5703 8.9688-12.504 19.992-17.344 32.168-7.4844-11.996-13.102-23.953-17.086-36.414zm156.68-206.14c-10.938 5.5547-21.938 11.859-32.766 18.793l-1.543-17.266v-0.003907-0.003906l-1.5469-17.316c12.633 4.8594 24.668 10.164 35.855 15.797z"/>
  <use x="70" y="653.332031" xlink:href="#t"/>
  <use x="92.832031" y="653.332031" xlink:href="#d"/>
  <use x="108.175781" y="653.332031" xlink:href="#a"/>
  <use x="129.273437" y="653.332031" xlink:href="#l"/>
  <use x="150.269531" y="653.332031" xlink:href="#c"/>
  <use x="165.140625" y="653.332031" xlink:href="#a"/>
  <use x="186.242188" y="653.332031" xlink:href="#k"/>
  <use x="219.34375" y="653.332031" xlink:href="#j"/>
  <use x="241.613281" y="653.332031" xlink:href="#i"/>
  <use x="272.722656" y="653.332031" xlink:href="#h"/>
  <use x="283.386719" y="653.332031" xlink:href="#e"/>
  <use x="301.828125" y="653.332031" xlink:href="#b"/>
  <use x="323.203125" y="653.332031" xlink:href="#g"/>
  <use x="345.351562" y="653.332031" xlink:href="#e"/>
  <use x="363.792969" y="653.332031" xlink:href="#f"/>
  <use x="385.941406" y="653.332031" xlink:href="#a"/>
  <use x="407.042969" y="653.332031" xlink:href="#a"/>
  <use x="428.140625" y="653.332031" xlink:href="#s"/>
  <use x="446.660156" y="653.332031" xlink:href="#a"/>
  <use x="70" y="684.445312" xlink:href="#r"/>
  <use x="83.535156" y="684.445312" xlink:href="#d"/>
  <use x="98.878906" y="684.445312" xlink:href="#b"/>
  <use x="120.25" y="684.445312" xlink:href="#q"/>
  <use x="163.5" y="684.445312" xlink:href="#c"/>
  <use x="178.371094" y="684.445312" xlink:href="#f"/>
  <use x="200.519531" y="684.445312" xlink:href="#a"/>
  <use x="232.453125" y="684.445312" xlink:href="#p"/>
  <use x="258.488281" y="684.445312" xlink:href="#b"/>
  <use x="279.863281" y="684.445312" xlink:href="#o"/>
  <use x="302.011719" y="684.445312" xlink:href="#g"/>
  <use x="334.992188" y="684.445312" xlink:href="#n"/>
  <use x="357.792969" y="684.445312" xlink:href="#d"/>
  <use x="373.136719" y="684.445312" xlink:href="#b"/>
  <use x="394.507812" y="684.445312" xlink:href="#m"/>
  <use x="405.171875" y="684.445312" xlink:href="#a"/>
  <use x="426.273437" y="684.445312" xlink:href="#e"/>
  <use x="444.714844" y="684.445312" xlink:href="#c"/>
 </g>
</svg>
