<?xml version="1.0" encoding="UTF-8"?>
<svg width="700pt" height="700pt" fill="#fdc92e" version="1.1" viewBox="0 0 700 700" xmlns="http://www.w3.org/2000/svg" xmlns:xlink="http://www.w3.org/1999/xlink">
 <g>
  <path d="m543.67 403.78c5.043-11.074 10.18-22.359 15.34-33.691-27.984-0.19141-56.332-0.38281-81.871-0.55859-21.66-0.039063-40.938-0.078125-55.137-0.10156-13.242 0-0.89453 17.504 9.4453 17.504h95.34c-0.94531 0.57812-2.3906 1.6172-4.5234 3.2852-1.207 0.95703-2.6172 2.0703-4.2188 3.3398-1.7031 1.1367-3.6172 2.4102-5.7305 3.8203-4.25 2.7656-9.0781 6.3867-14.957 10.031-6.1133 3.2695-12.797 7.3711-20.543 11.23-3.9648 1.7461-8.125 3.5781-12.473 5.4922-2.1758 0.94141-4.3672 1.9805-6.6602 2.9023-2.3477 0.77734-4.7461 1.5664-7.1914 2.375-4.9062 1.5508-9.9062 3.4531-15.238 4.9062-5.3867 1.2344-10.961 2.5117-16.715 3.832-23.152 4.3516-49.953 6.0078-78.625 1.8203-28.602-4.125-59.012-14.176-87.465-31.699-28.273-17.547-55.492-42-73.109-74.277-8.6875-16.121-15.539-33.766-19.199-52.516-3.4961-18.754-4.2383-38.344-1.8438-57.875 4.3633-39.234 23.594-77.332 52.672-106.38 29.035-28.723 71.445-43.949 113.05-40.105 20.758 1.8945 41.066 8.5938 59.043 19.191l6.7227 4.0234 6.3008 4.6641c4.3477 2.9258 8.1406 6.5391 12.004 10.062 4.0781 3.3555 7.2266 7.418 10.754 11.184 1.6758 1.9531 3.0742 4.125 4.6289 6.1719 1.5469 2.0586 3.082 4.1211 4.2891 6.3984 5.668 8.6172 9.332 18.328 12.434 28.07 2.7422 9.8984 4.0898 20.109 4.2891 30.336-0.14062 20.426-5.4531 40.809-16.066 58.027-2.3633 4.4805-5.6602 8.3359-8.5664 12.441-1.543 1.9844-3.3477 3.7539-5 5.6484-1.6953 1.8516-3.3086 3.8125-5.2109 5.3594-7.0781 6.8594-15.406 12.277-24.305 16.199-8.8906 3.9492-18.383 6.418-27.992 7.3398-9.6211 0.87109-19.301 0-28.551-2.2188-18.535-4.2461-35.285-15.293-46.75-29.312-11.27-14.168-16.184-32.637-14.145-49.984 1.8711-17.332 10.773-33.559 23.414-44.109 12.543-10.305 29.496-14.156 44.582-10.844 14.914 3.207 28.59 13.145 34.371 25.609 6.1797 12.574 4.7969 27.758-2.0898 38.695-1.6602 2.7891-3.7734 5.2656-5.9688 7.5625-2.1914 2.0977-4.6094 3.8711-7.1953 5.2969-5.2383 2.7266-11.125 3.9102-16.793 3.4531-11.234-0.82422-21.656-8.3945-24.598-17.215-2.5273-7.0742-1.3945-13.066-0.25-17.051 1.293-4.0234 2.5977-6.543 2.9414-8.0859 0.30859-1.5781-0.36719-2.2539-2.0859-1.875-1.7383 0.34766-4.5117 1.8438-7.4297 5.1289-2.8125 3.2734-5.7656 8.5195-6.4844 15.406-0.88672 6.8203 0.77344 15.254 5.8164 22.684 5.082 7.2266 12.789 13.223 22.145 16.215 9.2578 3.0234 19.836 2.875 29.043-0.59766 9.0938-3.2266 17.141-9.75 22.559-17.09 5.5898-7.4336 9.582-16.191 11.008-25.41 3.2734-18.379-3.1758-38.164-16.566-51.133-12.793-12.793-30.82-20.176-48.883-20.234-18.07-0.22266-36.184 6.9453-49.148 19.551-6.2852 6.2461-11.801 13.168-15.973 20.98-4.125 7.8008-7.1055 16.18-8.8203 24.828-3.1211 17.32-1.1523 35.641 6.3516 51.648 15.215 32.559 48.504 52.309 82.781 55.363 17.172 1.2383 34.789-1.2305 50.594-8.2969 15.781-6.8555 30.039-17.879 40.633-30.992 21.855-26.082 32.555-61.074 29.172-94.902-3.0547-33.82-20.57-66.254-46.68-87.449-12.816-10.75-27.164-19.738-42.664-26.172-15.574-6.2148-32.039-10.062-48.73-11.383-16.699-1.4766-33.594 0.26172-49.836 4.2031-16.215 4.0312-32.031 10.285-46.117 19.402-14.047 8.9883-27.184 19.93-37.695 32.648l-4.1562 4.6133-3.707 4.9844-7.3555 10.016c-2.3398 3.4141-4.2891 7.0859-6.4453 10.621-2.0547 3.5938-4.3828 7.0469-5.9727 10.887-29.977 59.227-27.348 133.8 7.957 190.24 3.9062 7.3398 9.3672 13.648 14.133 20.418 2.4609 3.332 5.4531 6.2227 8.1641 9.3516 2.8477 2.9844 5.3945 6.332 8.5039 9.0078 6.1406 5.4375 12.031 11.184 18.41 16.332 6.6641 4.7891 13.098 9.9258 19.98 14.395 27.59 17.844 58.867 29.91 91.238 35.344 32.367 5.4688 65.816 4.3516 97.742-3.2852 31.93-7.5977 62.293-21.77 88.598-41.406 4.7188-3.2344 8.4375-6.3828 11.477-9.2461l-41.688 94.062c-3.0195 6.8086 2.9258 7.9219 7.4531 7.1172 2.5938-0.46094 10.785-15.062 21.781-37.066 5.4961-11.004 11.691-23.855 18.238-37.715 3.2344-6.9414 6.5977-14.121 10.023-21.441z"/>
  <use x="70" y="653.332031" xlink:href="#t"/>
  <use x="92.832031" y="653.332031" xlink:href="#d"/>
  <use x="108.175781" y="653.332031" xlink:href="#a"/>
  <use x="129.273437" y="653.332031" xlink:href="#l"/>
  <use x="150.269531" y="653.332031" xlink:href="#c"/>
  <use x="165.140625" y="653.332031" xlink:href="#a"/>
  <use x="186.242188" y="653.332031" xlink:href="#k"/>
  <use x="219.34375" y="653.332031" xlink:href="#j"/>
  <use x="241.613281" y="653.332031" xlink:href="#i"/>
  <use x="272.722656" y="653.332031" xlink:href="#h"/>
  <use x="283.386719" y="653.332031" xlink:href="#e"/>
  <use x="301.828125" y="653.332031" xlink:href="#b"/>
  <use x="323.203125" y="653.332031" xlink:href="#g"/>
  <use x="345.351562" y="653.332031" xlink:href="#e"/>
  <use x="363.792969" y="653.332031" xlink:href="#f"/>
  <use x="385.941406" y="653.332031" xlink:href="#a"/>
  <use x="407.042969" y="653.332031" xlink:href="#a"/>
  <use x="428.140625" y="653.332031" xlink:href="#s"/>
  <use x="446.660156" y="653.332031" xlink:href="#a"/>
  <use x="70" y="684.445312" xlink:href="#r"/>
  <use x="83.535156" y="684.445312" xlink:href="#d"/>
  <use x="98.878906" y="684.445312" xlink:href="#b"/>
  <use x="120.25" y="684.445312" xlink:href="#q"/>
  <use x="163.5" y="684.445312" xlink:href="#c"/>
  <use x="178.371094" y="684.445312" xlink:href="#f"/>
  <use x="200.519531" y="684.445312" xlink:href="#a"/>
  <use x="232.453125" y="684.445312" xlink:href="#p"/>
  <use x="258.488281" y="684.445312" xlink:href="#b"/>
  <use x="279.863281" y="684.445312" xlink:href="#o"/>
  <use x="302.011719" y="684.445312" xlink:href="#g"/>
  <use x="334.992188" y="684.445312" xlink:href="#n"/>
  <use x="357.792969" y="684.445312" xlink:href="#d"/>
  <use x="373.136719" y="684.445312" xlink:href="#b"/>
  <use x="394.507812" y="684.445312" xlink:href="#m"/>
  <use x="405.171875" y="684.445312" xlink:href="#a"/>
  <use x="426.273437" y="684.445312" xlink:href="#e"/>
  <use x="444.714844" y="684.445312" xlink:href="#c"/>
 </g>
</svg>
