<?xml version="1.0" encoding="UTF-8"?>
<svg width="700pt" height="700pt" fill="#0fa78f" version="1.1" viewBox="0 0 700 700" xmlns="http://www.w3.org/2000/svg" xmlns:xlink="http://www.w3.org/1999/xlink">
  <g>
  <path d="m510.56 237.65c-20.914-28.438-56.438-34.039-86.539-13.648l-2.2734 1.4883c-13.562 9.1875-32.113 21.699-30.977 47.336 0.4375 9.625 5.0742 18.199 13.477 24.762 10.852 8.5742 27.387 13.211 44.887 13.211 6.3008 0 12.773-0.61328 19.074-1.8359 17.762-3.5 37.449-20.914 44.711-39.637 4.6367-11.898 3.7617-23.188-2.5391-31.762zm-5.6016 28.613c-6.2109 16.012-23.363 31.324-38.238 34.211-21.789 4.1992-44.102 0.4375-56.961-9.7109-6.4766-5.0742-9.8867-11.199-10.238-18.289-0.96094-20.738 14.613-31.238 27.125-39.637l2.2734-1.5742c21.875-14.961 53.461-17.148 74.551 11.551 5.6875 7.7891 3.9375 16.977 1.4883 23.363z"/>
  <path d="m390.16 203.79c0.96094 0 1.9258 0 2.8867-0.17578 4.8125-0.52344 9.8008-1.1367 19.512-9.0117 4.2891-3.5 6.2109-8.1367 5.3359-12.863-0.78906-4.0234-3.5859-7.2617-7.2617-8.3984-3.6758-1.1367-7.5234-0.085938-10.586 2.8867-1.75 1.75-6.3867 5.5117-10.586 3.1484-0.26172-0.17578-0.35156-0.52344-0.4375-0.78906-0.35156-1.6641 0.17578-4.9883 2.2734-8.1367 2.625-4.0234 1.9258-9.9766-1.75-13.824-3.6758-3.8516-9.0117-4.375-13.914-1.3984-7.5234 4.5508-9.0117 17.062-9.0117 20.125 0 9.1875 3.5 17.852 9.3633 23.012 4.0234 3.5859 8.9258 5.4258 14.352 5.4258zm-10.062-41.125c0.69922-0.4375 1.3125-0.61328 1.75-0.61328 0.61328 0 0.96094 0.26172 1.3125 0.61328 0.96094 0.96094 1.0508 2.3633 0.78906 2.8867-3.1484 4.8125-4.4609 10.586-3.5 14.961 0.69922 2.8008 2.2734 5.0742 4.5508 6.3867 6.4766 3.6758 14.352 2.1016 21.086-4.4609 0.52344-0.52344 1.2266-1.0508 1.8359-0.78906 0.52344 0.17578 1.1367 0.78906 1.3125 1.75 0.26172 1.4883-0.52344 3.0625-2.2734 4.4609-7.6133 6.3008-10.852 6.6484-15.137 7.0859-3.9375 0.4375-7.3516-0.61328-10.238-3.1484-4.0234-3.5859-6.3867-9.7109-6.3867-16.539 0-3.4141 2.0117-10.938 4.8125-12.688z"/>
  <path d="m257.25 301.7c-6.3008 0.35156-11.812 3.2383-15.926 8.3984-3.0625 3.7617-6.2109 7.6992-7.4375 20.125-0.52344 5.5117 1.3984 10.148 5.3359 12.863 1.9258 1.3125 4.1133 2.0117 6.3008 2.0117 1.6641 0 3.2383-0.35156 4.7266-1.1367 3.4141-1.75 5.4258-5.25 5.5117-9.5391 0-2.5391 0.61328-8.3984 5.3359-9.7109 0.26172 0 0.61328 0.17578 0.875 0.26172 1.4883 0.875 3.4141 3.5859 4.1992 7.3516 0.96094 4.7266 5.6875 8.3984 10.938 8.5742 5.4258 0.35156 9.5391-3.2383 10.852-8.8359 2.1016-8.5742-5.6016-18.461-7.7891-20.648-6.4766-6.5625-15.051-10.148-22.836-9.8008zm19.949 30.539c-1.2266 0-2.4492-0.875-2.5391-1.5742-1.1367-5.6875-4.2891-10.676-8.1367-13.125-2.4492-1.4883-5.1641-2.0117-7.6992-1.3125-7.2617 1.9258-11.727 8.6641-11.812 17.938 0 0.69922-0.17578 1.5742-0.78906 1.9258-0.4375 0.26172-1.3125 0.26172-2.1016-0.35156-1.2266-0.78906-1.75-2.5391-1.4883-4.7266 1.0508-9.8008 3.0625-12.336 5.6875-15.664 2.4492-3.1484 5.6875-4.8125 9.4492-4.9883 5.4258-0.26172 11.375 2.3633 16.188 7.1758 2.3633 2.3633 6.3008 9.0117 5.5117 12.426-0.52344 1.9258-1.3984 2.1875-2.1875 2.1875z"/>
  <path d="m181.56 322.61c2.0117 1.1367 4.5508 0.96094 7.5234 0.17578v0.17578c-5.5117 11.898-9.8867 21.352-3.4141 24.5 1.0508 0.52344 2.1016 0.78906 3.1484 0.78906 6.5625 0 12.773-9.2734 19.336-18.988 2.4492-3.5859 4.7266-7 6.3008-8.6641 1.6641-1.75 1.5742-4.5508-0.17578-6.2109-1.75-1.6641-4.5508-1.5742-6.2109 0.17578-2.0117 2.1875-4.375 5.6875-7.1758 9.8008-1.8359 2.7109-4.8125 7.1758-7.5234 10.586 1.2266-2.9766 2.7109-6.125 3.6758-8.2266 3.2383-6.9141 4.1133-9.0117 3.7617-11.113-0.17578-1.2266-1.0508-2.4492-2.1016-3.0625-1.9258-1.1367-3.5859-0.69922-6.5625 0.35156 8.3984-8.6641 24.676-22.926 27.824-24.852 2.1016-1.0508 2.9766-3.6758 1.9258-5.8633s-3.6758-3.0625-5.8633-2.0117c-0.4375 0.17578-39.551 30.102-37.188 38.938 0.4375 1.4883 1.3984 2.7109 2.8008 3.5z"/>
  <path d="m297.06 226.89c2.8867 0 5.7734-1.2266 8.2266-3.7617 6.2109-6.3008 5.5117-11.551 4.4609-14.176-1.4883-3.7617-5.4258-6.3867-9.9766-6.4766-5.25-0.17578-10.062 2.8008-12.426 7.7891-2.4492 5.0742-0.78906 11.375 3.7617 14.613 1.8359 1.3125 3.8516 1.9258 5.9492 1.9258zm-1.8359-12.773c1.2266-2.5391 3.2383-2.8867 4.1133-2.8867h0.17578c1.1367 0 1.9258 0.52344 2.1016 0.96094 0.17578 0.52344 0 2.1875-2.5391 4.7266-1.6641 1.6641-2.5391 1.0508-2.8867 0.78906-0.875-0.61328-1.6641-2.1016-0.96094-3.6758z"/>
  <path d="m450.45 226.1c-5.1641 0.96094-9.1875 4.8984-10.5 10.324-1.3125 5.5117 1.6641 11.289 6.8242 13.477 1.3984 0.52344 2.7109 0.875 4.1133 0.875 3.5859 0 7-2.0117 9.3633-5.6016 4.7266-7.5234 2.8867-12.512 1.3125-14.789-2.2734-3.4141-6.6484-5.0742-11.113-4.1992zm2.3633 14.352c-1.2266 2.0117-2.2734 1.5742-2.625 1.3984-0.96094-0.4375-2.1016-1.6641-1.75-3.4141 0.69922-2.8867 2.7109-3.5859 3.5859-3.6758h0.69922c0.78906 0 1.3984 0.26172 1.5742 0.61328 0.35156 0.4375 0.4375 2.1875-1.4883 5.1641z"/>
  <path d="m430.15 263.81c-5.1641 0.96094-9.1875 4.8984-10.5 10.324-1.3125 5.5117 1.6641 11.289 6.8242 13.477 1.3984 0.52344 2.7109 0.875 4.1133 0.875 3.5859 0 7-2.0117 9.3633-5.6016 4.7266-7.5234 2.8867-12.512 1.3125-14.789-2.2734-3.4141-6.6484-5.0742-11.113-4.1992zm2.3633 14.352c-1.2266 1.9258-2.1875 1.5742-2.625 1.3984-0.96094-0.4375-2.1016-1.6641-1.75-3.4141 0.69922-2.8867 2.7109-3.5859 3.5859-3.6758h0.69922c0.78906 0 1.3984 0.26172 1.5742 0.61328 0.35156 0.4375 0.4375 2.1875-1.4883 5.1641z"/>
  <path d="m484.31 253.57c-5.1641 0.96094-9.1875 4.8984-10.5 10.324-1.3125 5.5117 1.6641 11.289 6.8242 13.477 1.3984 0.52344 2.7109 0.875 4.1133 0.875 3.5859 0 7.0859-2.0117 9.3633-5.6016 4.7266-7.5234 2.8867-12.512 1.3125-14.789-2.2734-3.4141-6.7383-5.0742-11.113-4.1992zm2.3633 14.352c-1.2266 2.0117-2.2734 1.5742-2.625 1.3984-0.96094-0.4375-2.1016-1.6641-1.75-3.4141 0.69922-2.8867 2.7109-3.5859 3.5859-3.6758 1.1367-0.17578 2.0117 0.085937 2.2734 0.52344 0.35156 0.4375 0.4375 2.1875-1.4883 5.1641z"/>
  <path d="m345.71 335.74c8.3125-0.35156 15.664-3.5859 20.562-9.2734 4.9883-5.6875 7.2617-13.211 6.5625-21.352-0.875-9.1875-8.3984-17.5-18.461-20.125-10.676-2.8867-21.176 1.3125-28.086 11.113-5.6016 7.9609-6.125 17.852-1.4883 26.512 4.375 8.0508 12.25 13.125 20.125 13.125h0.69922zm-13.125-17.324c-1.4883-2.7109-4.375-9.8008 0.875-17.324 3.7617-5.4258 8.8359-8.3125 14.352-8.3125 1.3984 0 2.8867 0.17578 4.2891 0.61328 6.4766 1.75 11.551 7 11.988 12.512 0.52344 5.6875-1.0508 10.938-4.4609 14.789-3.4141 3.8516-8.3984 6.0391-14.352 6.3008-4.6367 0.17578-9.8867-3.2383-12.773-8.5742z"/>
  <path d="m346.94 321.65c3.6758-0.17578 6.9141-1.6641 9.1016-4.1992 2.1875-2.5391 3.2383-5.8633 2.9766-9.4492-0.35156-4.375-3.8516-8.2266-8.4883-9.4492-4.8125-1.3125-9.7109 0.61328-12.773 4.9883-2.5391 3.6758-2.8008 8.1367-0.69922 12.074 2.0117 3.6758 5.6875 6.0391 9.4492 6.0391h0.35156zm-2.1016-10.148c-0.52344-1.0508-0.52344-2.0117 0.17578-2.8867 0.78906-1.1367 1.5742-1.6641 2.5391-1.6641 0.26172 0 0.52344 0 0.78906 0.085937 1.1367 0.26172 1.9258 1.1367 2.0117 1.75 0.085938 1.1367-0.17578 2.1875-0.78906 2.8867s-1.6641 1.1367-2.8867 1.2266c-0.17578 0-1.2266-0.52344-1.75-1.4883z"/>
  <path d="m625.45 289.01c1.3984-19.512-9.1016-34.648-16.887-45.762-1.6641-2.3633-3.2383-4.6367-4.5508-6.7383l-3.2383-5.25c-10.5-17.148-32.289-52.762-60.461-77-14.789-12.773-37.273-25.289-57.137-36.312-15.312-8.5742-29.836-16.625-35.523-22.051-6.4766-6.2109-16.625-7.2617-27.824-2.7109-14.176 5.7734-28.961 20.477-31.062 35.875-0.4375 0.26172-0.96094 0.52344-1.5742 0.78906-59.68 31.148-209.21 122.85-309.23 299.07-3.5859 6.3008-4.5508 16.102-2.5391 24.938 0.35156 1.4883 1.4883 2.5391 2.8867 3.1484 0.4375 0.17578 1.3125 0.4375 1.9258 0.26172 7.5234-1.8359 10.676-2.7109 22.926-5.7734 14.875-3.6758 35.352-8.75 55.387-13.824 0.78906 0.96094 1.5742 2.0117 2.4492 3.1484 8.3125 10.852 17.762 23.102 32.289 20.039 17.5-3.5859 22.227-20.477 26.512-35.352 0.17578-0.52344 0.26172-0.96094 0.4375-1.3984 3.8516-1.0508 9.5391-2.7109 15.227-4.4609 4.4609-1.3125 8.75-2.625 11.988-3.5 2.625 5.3359 5.0742 11.461 7.4375 17.414 7.0859 17.852 14.438 36.227 27.477 36.227 0.78906 0 1.6641 0 2.5391-0.26172 18.289-3.1484 21.613-33.512 24.762-62.914 0.26172-2.5391 0.61328-5.3359 0.875-8.1367 3.3242-0.96094 8.2266-2.3633 13.211-3.7617 4.2891-1.2266 8.3984-2.4492 11.551-3.3242 6.3867 13.387 13.914 26.164 26.25 22.227 8.8359-2.8867 12.25-14.352 15.75-26.512 0.61328-2.1016 1.2266-4.2891 1.9258-6.3867 3.5859-0.96094 7.2617-1.9258 10.938-2.9766 3.5-0.96094 7-1.8359 10.414-2.8008 1.3984 1.6641 2.8867 3.4141 4.1992 5.0742 11.988 14.613 28.438 34.562 50.137 28.352 17.676-5.0742 22.836-32.113 26.949-53.812 0.085938-0.52344 0.17578-1.0508 0.26172-1.5742 2.8008-0.875 6.5625-2.1016 10.414-3.4141 5.9492-2.0117 15.664-5.25 18.113-5.9492 8.75 7.5234 18.988 14.699 30.102 11.375 11.199-3.4141 16.102-13.125 19.426-23.363 6.4766-1.8359 12.863-3.5859 18.551-5.25 9.2734-2.625 16.977-4.8125 21.262-5.8633 20.648-5.1641 26.863-12.773 25.461-31.414zm-202.39-187.86c3.6758-1.4883 12.949-4.375 18.461 0.875 0.875 0.875 1.9258 1.75 3.0625 2.625-8.5742 2.2734-17.414 6.6484-22.227 11.289-1.75 1.6641-1.75 4.4609 0 6.2109 0.875 0.875 2.0117 1.3125 3.1484 1.3125 1.1367 0 2.1875-0.4375 3.0625-1.2266 5.3359-5.1641 17.852-10.062 26.426-10.586 6.7383 4.1992 14.961 8.75 23.887 13.738 19.512 10.852 41.562 23.188 55.738 35.352 5.4258 4.7266 10.586 9.8867 15.488 15.312-10.414 0-19.688 3.2383-27.648 9.625-1.9258 1.4883-2.1875 4.2891-0.69922 6.125 0.875 1.0508 2.1875 1.6641 3.4141 1.6641 0.96094 0 1.9258-0.35156 2.7109-0.96094 8.4883-6.6484 18.551-8.8359 30.539-7 15.664 18.898 27.914 38.762 34.914 50.227l3.3242 5.3359c1.3984 2.2734 3.0625 4.6367 4.8125 7.0859 4.5508 6.5625 9.8867 14.176 12.949 22.836-8.4883-4.5508-20.125-4.0234-27.738-1.3125-6.6484 2.2734-10.938 7-13.387 12.512-0.35156-0.875-7.6992-14.613-11.375-19.949 3.9375-6.3008 12.773-14.176 21.875-14.789 2.4492-0.17578 4.1992-2.2734 4.0234-4.6367-0.17578-2.4492-2.2734-4.1992-4.6367-4.0234-10.238 0.69922-20.562 8.0508-26.602 16.012-18.113-24.414-46.289-53.637-73.414-77.613 8.6641-8.9258 26.336-13.387 35-13.387 2.4492 0 4.375-1.9258 4.375-4.375s-1.9258-4.375-4.375-4.375c-8.8359 0-30.102 4.2891-41.562 16.449-9.9766-8.5742-19.773-16.363-28.613-22.664-22.137-15.836-38.414-23.273-49.438-22.75 3.5-10.676 14.523-20.648 24.762-24.852zm-115.68 88.289c6.6484 6.2109 15.051 20.738 14.961 37.273-0.17578 14.176-6.5625 26.164-19.074 35.699-21 15.926-39.551 12.949-48.738 9.7109-11.289-4.0234-20.387-12.336-23.102-21 26.512-24.324 52.324-44.711 76.039-61.602zm-173.6 169.84s0.4375-0.52344 0.61328-0.875c6.6484-8.9258 15.488-7.7891 19.074-6.8242 7.1758 1.9258 12.949 7.5234 13.477 13.125 0.52344 5.6875-1.0508 10.938-4.4609 14.789-3.4141 3.8516-8.3984 6.0391-14.352 6.3008-5.25 0.26172-11.289-4.1133-14.523-10.148-1.8359-3.3242-4.1133-9.8008 0.17578-16.363zm-28.438 82.688c10.238-5.1641 22.664-10.324 37.363-15.488 3.1484-0.69922 6.0391 0.78906 9.2734 3.8516-16.711 4.1992-33.426 8.3125-46.637 11.637zm127.49-30.625c-3.2383 0.96094-6.5625 2.0117-9.5391 2.8008 2.625-6.8242 5.5117-11.023 10.5-11.727 3.1484-0.4375 6.125 2.0117 8.9258 5.9492-2.9766 0.875-6.3867 1.9258-9.9766 2.9766zm88.375-25.023c-3.3242 0.96094-6.7383 1.9258-9.5391 2.7109 1.6641-11.461 3.9375-21.789 7.4375-22.664 3.6758-0.96094 8.4883 8.6641 12.336 16.977-2.9766 0.875-6.4766 1.8359-10.238 2.9766zm66.586-16.977c-1.5742 0.4375-3.1484 0.875-4.7266 1.3125 1.6641-3.0625 3.5-5.1641 5.7734-5.4258 1.2266-0.17578 2.8867 0.875 4.8125 2.5391-1.9258 0.52344-3.8516 1.0508-5.8633 1.5742zm101.85-28.086c-1.9258 0.69922-3.8516 1.3125-5.6016 1.9258 1.4883-6.5625 3.1484-12.426 4.9883-13.738 2.8008-2.0117 8.3125 2.3633 14.086 7.4375-3.2383 0.96094-7.5234 2.3633-13.387 4.375zm64.664-20.648c-3.4141 12.336-6.3867 23.012-16.188 25.988-8.3984 2.5391-18.023-6.0391-26.426-13.738-9.1875-8.3125-18.727-16.977-27.738-10.586-5.4258 3.8516-7.5234 13.648-10.762 30.625-3.6758 19.426-8.3125 43.488-20.738 47.074-16.188 4.6367-29.398-11.375-40.949-25.551-8.75-10.586-15.75-18.988-23.625-18.023-11.289 1.3984-15.227 15.051-18.988 28.176-2.625 9.0117-5.6016 19.25-10.062 20.648-6.5625 2.1016-12.688-11.023-18.023-22.664-6.2109-13.477-12.688-27.301-23.711-24.762-11.289 2.7109-13.477 22.664-16.188 47.773-2.5391 23.711-5.7734 53.199-17.586 55.211-7.6992 1.3125-14.438-15.664-20.387-30.625-7.6133-19.074-15.312-38.762-30.273-36.574-13.477 2.0117-17.5 15.926-21.262 29.398-3.8516 13.738-7.5234 26.688-19.863 29.227-8.5742 1.8359-14.875-5.5117-23.539-16.801-7.7891-10.062-15.836-20.477-27.562-17.5 0 0-0.875 0.26172-1.0508 0.35156-24.676 8.6641-43.227 17.324-56.176 26.336 0-4.4609 0.78906-8.75 2.4492-11.637 11.988-21.086 24.762-40.863 37.887-59.5 0.52344 2.1016 1.3125 4.1133 2.3633 6.2109 4.7266 8.75 13.738 14.699 21.961 14.699h0.61328c8.3125-0.35156 15.664-3.5859 20.562-9.2734 4.9883-5.6875 7.2617-13.211 6.5625-21.352-0.875-9.3633-9.0117-17.852-19.949-20.824-2.9766-0.78906-5.9492-1.1367-8.8359-0.96094 25.289-32.113 51.625-60.375 77.613-84.789 4.5508 9.8008 14.613 18.461 27.039 22.836 4.4609 1.5742 10.762 3.0625 18.289 3.0625 10.852 0 24.324-3.1484 38.676-14.086 14.613-11.113 22.398-25.812 22.574-42.613 0.17578-17.238-7.875-33.688-16.363-42.438 31.324-21.875 58.273-37.188 76.562-46.812 1.3125-0.69922 3.5859-1.9258 3.6758-1.9258 2.5391-1.3984 13.387-4.1992 47.773 20.387 48.387 34.562 101.15 91.875 118.56 121.89-7.0859 2.8008-15.488 7.6133-17.762 15.488-1.3984 4.7266-2.5391 9.3633-3.6758 13.562-2.3633 9.0117-5.5117 21.438-8.2266 22.051 0 0-2.3633 0.4375-8.75-6.9141-1.5742-1.8359-4.375-2.0117-6.2109-0.4375s-2.0117 4.375-0.4375 6.2109c4.1133 4.7266 9.4492 9.9766 15.227 9.9766 0.69922 0 1.3984 0 2.1875-0.26172 7.875-1.8359 10.586-12.426 14.699-28.438 1.0508-4.1992 2.1875-8.6641 3.5859-13.387 1.0508-3.5859 6.125-7.1758 13.301-9.8867 1.2266 3.0625 2.0117 5.6875 2.0117 7.6133-7.1758 6.8242-10.062 17.062-12.863 27.125zm22.051-2.625c-4.1133 1.1367-8.6641 2.4492-13.211 3.7617 2.1875-7.7891 4.4609-15.051 8.5742-20.039 0.17578 0.61328 0.17578 1.2266 0.35156 1.75 1.5742 5.1641 4.5508 9.8867 8.6641 13.211-1.4883 0.4375-2.8867 0.78906-4.4609 1.2266zm21.523-5.9492c-9.7109 2.4492-15.312-4.1133-17.414-11.113-2.5391-8.6641-0.35156-19.602 9.0117-22.836 2.8867-0.96094 6.4766-1.5742 10.062-1.5742 4.2891 0 8.5742 0.875 11.637 2.8867 3.4141 2.1875 5.25 5.6016 5.6016 10.414 0.96094 12.512-0.4375 17.676-18.812 22.227z"/>
  <path d="m149.36 380.54h0.35156c3.6758-0.17578 6.9141-1.6641 9.1016-4.1992 2.1875-2.5391 3.3242-5.8633 2.9766-9.4492-0.35156-4.375-3.8516-8.2266-8.4883-9.4492-4.8125-1.3125-9.7109 0.61328-12.773 4.8984-2.5391 3.6758-2.8008 8.1367-0.69922 12.074 2.0117 3.6758 5.6875 6.0391 9.4492 6.0391zm-1.6641-13.125c0.78906-1.0508 1.5742-1.6641 2.5391-1.6641 0.26172 0 0.52344 0 0.78906 0.085938 1.1367 0.26172 1.9258 1.1367 2.0117 1.75 0.085938 1.1367-0.17578 2.1875-0.78906 2.8867-0.61328 0.69922-1.6641 1.1367-2.8867 1.2266-0.26172 0-1.2266-0.52344-1.75-1.4883-0.52344-1.0508-0.52344-2.0117 0.17578-2.8867z"/>
  <path d="m275.19 268.98c2.8867 0 5.7734-1.2266 8.2266-3.7617 6.2109-6.3008 5.5117-11.551 4.4609-14.176-1.4883-3.7617-5.4258-6.3867-9.9766-6.4766-5.25-0.17578-10.062 2.8008-12.426 7.7891-2.4492 5.0742-0.78906 11.375 3.7617 14.613 1.8359 1.3125 3.8516 1.9258 5.9492 1.9258zm-1.8359-12.773c1.2266-2.5391 3.2383-2.8867 4.1133-2.8867h0.17578c1.1367 0 1.9258 0.52344 2.1016 0.96094 0.17578 0.52344 0 2.1875-2.5391 4.7266-1.6641 1.6641-2.5391 1.0508-2.8867 0.78906-0.875-0.61328-1.6641-2.1016-0.96094-3.6758z"/>
  <path d="m264.77 371.26c-0.69922 0.17578-66.062 19.074-66.5 28.875-0.96094 22.051-4.2891 32.461-5.5117 33.688-2.5391 0-7.5234-11.988-9.4492-16.449-0.96094-2.2734-3.5-3.3242-5.6875-2.3633-2.2734 0.96094-3.3242 3.5-2.3633 5.6875 4.4609 10.762 9.1016 21.875 17.5 21.875h0.52344c3.2383-0.17578 11.812-0.69922 13.648-40.512 7.5234-4.9883 51.449-20.477 59.676-22.227 2.3633-0.52344 3.8516-2.8008 3.4141-5.1641-0.52344-2.3633-2.8008-3.8516-5.1641-3.4141z"/>
  <path d="m459.46 357.52c-2.3633-0.26172-4.5508 1.3984-4.8984 3.7617-1.0508 8.4883-3.8516 13.914-7.7891 15.137-4.5508 1.4883-11.461-1.8359-17.762-8.3984-2.5391-2.625-4.9883-6.0391-7.5234-9.625-6.9141-9.625-14.699-20.648-28.262-20.914-2.4492-0.17578-11.812 2.2734-40.164 9.9766-4.8984 1.3125-8.4883 2.2734-9.1016 2.4492-2.3633 0.4375-3.9375 2.7109-3.5 5.0742s2.7109 4.0234 5.0742 3.5c0.52344-0.085937 4.375-1.1367 9.8008-2.625 10.414-2.8008 34.824-9.4492 37.711-9.625 9.1875 0.17578 15.051 8.4883 21.262 17.238 2.625 3.6758 5.3359 7.5234 8.3125 10.586 7.0859 7.3516 14.875 11.375 21.789 11.375 1.75 0 3.4141-0.26172 5.0742-0.78906 5.1641-1.75 11.727-7 13.738-22.398 0.35156-2.3633-1.3984-4.5508-3.7617-4.8984z"/>
  <path d="m357.61 262.5c1.8359-0.96094 4.8984-2.625 5.3359-2.8008 1.6641 1.2266 2.0117 4.375 2.3633 7.6133 0.61328 5.5117 1.6641 14.875 13.039 14.875 2.4492 0 4.375-1.9258 4.375-4.375s-1.9258-4.375-4.375-4.375c-3.0625 0-3.5859-0.4375-4.375-7.0859-0.52344-4.5508-1.1367-10.148-5.7734-13.648-4.4609-3.3242-9.8867-0.4375-14.699 2.1016-2.0117 1.0508-5.7734 3.0625-6.4766 3.4141 0-0.52344 0.69922-3.0625 4.4609-7.2617 9.4492-10.676 21.086-21.262 32.637-29.836 1.9258-1.3984 2.3633-4.1992 0.875-6.125-1.4883-1.9258-4.1992-2.3633-6.125-0.875-12.164 9.0117-23.977 19.773-33.949 31.062-9.4492 10.676-6.8242 16.363-4.375 18.727 4.9883 4.9883 11.988 1.3125 17.062-1.3984z"/>
  <use x="70" y="691.25" xlink:href="#o"/>
  <use x="102.109375" y="691.25" xlink:href="#c"/>
  <use x="123.683594" y="691.25" xlink:href="#b"/>
  <use x="153.355469" y="691.25" xlink:href="#a"/>
  <use x="182.878906" y="691.25" xlink:href="#h"/>
  <use x="203.792969" y="691.25" xlink:href="#b"/>
  <use x="233.464844" y="691.25" xlink:href="#g"/>
  <use x="280.011719" y="691.25" xlink:href="#f"/>
  <use x="311.328125" y="691.25" xlink:href="#e"/>
  <use x="355.078125" y="691.25" xlink:href="#d"/>
  <use x="371.359375" y="691.25" xlink:href="#n"/>
  <use x="396.820312" y="691.25" xlink:href="#m"/>
  <use x="437.238281" y="691.25" xlink:href="#a"/>
  <use x="466.761719" y="691.25" xlink:href="#c"/>
  <use x="503.570312" y="691.25" xlink:href="#l"/>
  <use x="547.105469" y="691.25" xlink:href="#k"/>
  <use x="578.25" y="691.25" xlink:href="#j"/>
  <use x="593.25" y="691.25" xlink:href="#i"/>
 </g>
</svg>
