<?xml version="1.0" encoding="UTF-8"?>
<svg width="700pt" height="700pt" fill="#0fa78f" version="1.1" viewBox="0 0 700 700" xmlns="http://www.w3.org/2000/svg" xmlns:xlink="http://www.w3.org/1999/xlink">

 <g>
  <path d="m279.33 438.59c0 3.3047 0 6.6094-0.39062 9.9102-0.54688 4.1484 0.24609 8.3594 2.2617 12.027 2.0117 3.6641 5.1445 6.5938 8.9375 8.3555 2.3516 1.2305 4.7617 2.3516 7.0547 3.6406 4.6523 1.9883 8.332 5.7344 10.23 10.426s1.8672 9.9414-0.09375 14.605c-0.72656 2.5195-1.625 4.9297-2.5742 7.6719 12.039 9.1836 24.641 15.961 40.039 15.734v0.003906c6.0156 0.23438 11.93-1.6289 16.723-5.2773 4.793-3.6484 8.168-8.8516 9.5391-14.715 2.5391-9.3203 3.1094-19.066 1.6797-28.617-2.7617-19.164-8.0938-37.867-15.848-55.605-14.504-3.9766-21.727-16.07-29.398-28.672-2.5195 1.793-4.6484 3.1914-6.6641 4.7617v-0.003906c-14.5 11.262-32.57 16.926-50.902 15.961-9.5234 0-11.594-3.25-9.5234-13.664 2.7539-2.293 6.2891-3.418 9.8594-3.1367 13.953 0.80078 27.773-3.1445 39.199-11.199 4.4727-2.9414 7.8594-7.2695 9.6328-12.32l-6.832-21.281c-26.656 18.93-53.816 20.273-81.648 3.5273-0.47266-1.3984-0.79297-2.8438-0.95312-4.3125 0.33594-8.1211 5.0977-11.199 12.543-7.8398 7.9375 4.1719 16.695 6.5391 25.648 6.9453 15.164 0.41406 29.703-6.0234 39.594-17.527l-3.4141-18.48h-0.003906c-19.727 7.9727-42.027 6.3789-60.422-4.3125-9.4531-4.6016-17.156-12.148-21.953-21.504 3.7539-8.457 3.7539-8.457 13.328-7.5586 17.527 20.441 39.199 27.664 66.078 16.238l-2.0156-29.566c-8.1758-1.6797-16.801-2.6875-24.754-5.1523-41.047-12.434-67.984-39.199-77.672-81.145h0.003907c-5.6055-24.012-5.0664-49.051 1.5664-72.801 3.3789-13.625 10.305-26.109 20.07-36.191s22.027-17.398 35.539-21.207c17.875-5.0938 36.41-7.4883 54.992-7.1133-18.199 15.512-36.457 30.574-45.527 54.543 11.816-1.3984 20.887-7.8945 31.863-11.199 0.03125 1.8789-0.11719 3.7539-0.44922 5.6016-1.8477 5.9922-3.6953 11.984-6.0469 17.809-9.3203 24.559-29.117 43.676-53.984 52.137l-22.008 8.1758c1.5664 35.168 37.465 77.281 88.09 79.07 3.9219-23.52 10.527-46.145 27.215-64.734-13.945-15.344-21.449-32.426-16.406-52.922h-0.003906c3.3047-12.992 11.98-23.965 23.855-30.184 1.5078 5.5625 1.9062 11.363 1.1758 17.078-0.23047 4.1445 0.69531 8.2734 2.6719 11.922 1.9805 3.6484 4.9297 6.6758 8.5312 8.7422 3.9062 1.9883 7.9961 3.5977 12.207 4.8164 2.6875-0.61719 4.6484-1.0078 6.5508-1.5664 5.2305-1.1289 9.9219-3.9961 13.309-8.1367 3.3867-4.1406 5.2695-9.3086 5.3398-14.656 0.28125-5.6016 0-11.199 0-16.801 13.328 2.8555 25.871 19.938 26.824 37.465 0.76953 16.266-5.4922 32.074-17.191 43.402 18.09 27.664 21.281 35.449 26.656 64.625 35.391 2.4062 82.098-29.008 88.871-77.727-3.5273-1.457-7.3359-3.1914-11.199-4.7031-6.7773-2.6328-13.719-4.8164-20.328-7.8398v-0.003907c-20.27-8.9336-36.164-25.555-44.184-46.203-3.1914-7.8398-5.6016-16.016-9.1836-26.039l34.27 13.328c-9.9688-25.09-28-40.488-46.816-55.273 1.0078-0.55859 1.2891-0.89453 1.5664-0.89453h0.003906c21.18-0.72266 42.293 2.7812 62.102 10.305 21.945 8.6562 38.773 26.805 45.754 49.336 7.3906 21.84 7.0547 44.297 4.9297 66.809h-0.003907c-1.6797 18.566-8.5938 36.277-19.934 51.07-19.125 26.469-49.062 43.02-81.648 45.137-0.83594 0.17188-1.6602 0.39453-2.4648 0.67188l-2.2969 29.398v0.003907c11.094 6.168 24.156 7.7578 36.402 4.4219 11.707-3.4375 22.07-10.398 29.68-19.938 9.4062-1.0625 9.4062-1.0625 13.664 7.6172-7.957 13.27-20.641 23.035-35.504 27.328-15.238 4.9844-31.754 4.3867-46.594-1.6797l-3.7539 17.977c11.199 16.016 35.617 22.398 54.938 15.68 3.1367-1.1211 6.1055-2.5742 9.1289-3.8633 9.6328-4.2578 13.887-1.0625 13.273 10.863-11.969 8.7109-26.543 13.098-41.328 12.434-14.852-0.73828-29.094-6.125-40.711-15.402l-7.1133 21.559c6.6641 13.496 19.098 19.098 33.098 21.895l-0.003907 0.003906c5.8203 0.87109 11.707 1.207 17.586 1.0078 5.6016 0 9.2383 3.0781 9.4062 8.0078 0.39453 2.4219-0.35547 4.8867-2.0352 6.6758-1.6758 1.7852-4.0898 2.6914-6.5312 2.4531-18.316 1.4258-36.547-3.6719-51.465-14.395-2.4062-1.7344-4.7031-3.6406-7.2812-5.6016l-21.617 26.375 0.003907 0.003906c6.4609 15.5 11.105 31.699 13.832 48.273 2.3672 13.438 2.082 27.211-0.83984 40.543-2.4414 11.488-9.4219 21.504-19.355 27.766-9.9336 6.2656-21.98 8.25-33.398 5.5-13.652-2.8438-26.539-8.5703-37.801-16.801-1.9023-1.3438-3.6953-2.8008-5.1523-3.8633h0.003906c-4.4766-0.10547-8.9336-0.57422-13.328-1.4023-5.5625-1.7578-10.484-5.1094-14.156-9.6406-3.6719-4.5273-5.9375-10.035-6.5078-15.84-0.72656-7.6328 0.44531-15.328 3.4141-22.398 4.293-10.723 10.668-20.488 18.762-28.727zm84.953-259.79c4.6484-2.5742 8.0625-4.5352 11.594-6.3828h-0.003906c7.0273-3.7422 12.676-9.6289 16.129-16.801 3.2695-5.4961 3.9648-12.148 1.9023-18.199-13.664 21.055-43.848 29.289-66.754-1.1758-1.2891 23.016 12.266 34.383 31.359 42.559-3.8633 2.7422-6.4961 4.7617-9.2383 6.4414l0.003907-0.003906c-7.8867 4.9766-14.336 11.926-18.707 20.16-7.6367 13.602-12.152 28.734-13.215 44.297-2.5234 40.148 4.043 80.344 19.207 117.6 3.6328 8.5039 7.9414 16.707 12.883 24.527 2.7578 5.2109 8.0039 8.6406 13.887 9.0703 3.5156-2.9258 6.7891-6.1289 9.8008-9.5742 3.1562-4.25 5.8438-8.832 8.0078-13.664 17.488-38.383 25.754-80.324 24.137-122.47-0.46094-11.57-2.6523-23.012-6.4961-33.934-5.6016-15.68-13.551-29.512-28.785-37.801-2.0039-1.4219-3.9141-2.9766-5.7109-4.6484zm-96.715-68.207-6.5508-0.28125c-10.754-0.83984-16.184-7.5586-14.113-18.09 0.77734-4.1992 2.1328-8.2695 4.0352-12.094 3.1367-6.1055 6.8867-11.93 11.199-19.098-14.41 3.6758-27.191 12.027-36.344 23.746-11.199 14.953-14.223 32.426-15.457 50.398-0.28125 4.1992 0 8.3984 0 13.383 23.406-7.1094 44.855-14.84 57.23-37.965zm243.82 37.688c1.3828-11.227 0.73828-22.605-1.9023-33.602-1.5039-8.4922-4.5625-16.637-9.0156-24.023-9.1445-14.871-23.801-25.523-40.77-29.625 2.6758 3.6875 5.1406 7.5195 7.3945 11.48 3.3945 6.3711 6.1328 13.07 8.1758 19.992 2.5742 10.305-3.3047 17.137-14.055 17.977l-6.7188 0.33594c12.707 22.68 33.934 30.801 56.891 37.465zm-219.12 342.05-19.77-16.352c-1.3828 7.9219 0.65234 16.059 5.6016 22.398 2.5195 3.3047 5.9922 3.5859 10.809 1.6797z"/>
  <path d="m279.61 438.87 0.61719-0.78516-0.89453 0.50391z"/>
  <use x="70" y="644" xlink:href="#s"/>
  <use x="90.550781" y="644" xlink:href="#b"/>
  <use x="104.359375" y="644" xlink:href="#a"/>
  <use x="123.347656" y="644" xlink:href="#f"/>
  <use x="142.242188" y="644" xlink:href="#d"/>
  <use x="155.628906" y="644" xlink:href="#a"/>
  <use x="174.617188" y="644" xlink:href="#j"/>
  <use x="204.410156" y="644" xlink:href="#e"/>
  <use x="224.453125" y="644" xlink:href="#i"/>
  <use x="252.453125" y="644" xlink:href="#h"/>
  <use x="272.617188" y="644" xlink:href="#c"/>
  <use x="291.851562" y="644" xlink:href="#b"/>
  <use x="305.664062" y="644" xlink:href="#a"/>
  <use x="324.652344" y="644" xlink:href="#g"/>
  <use x="353.828125" y="644" xlink:href="#e"/>
  <use x="373.871094" y="644" xlink:href="#f"/>
  <use x="70" y="672" xlink:href="#r"/>
  <use x="82.183594" y="672" xlink:href="#b"/>
  <use x="95.992188" y="672" xlink:href="#c"/>
  <use x="115.226562" y="672" xlink:href="#g"/>
  <use x="154.152344" y="672" xlink:href="#d"/>
  <use x="167.535156" y="672" xlink:href="#q"/>
  <use x="187.46875" y="672" xlink:href="#a"/>
  <use x="216.207031" y="672" xlink:href="#p"/>
  <use x="239.640625" y="672" xlink:href="#c"/>
  <use x="258.878906" y="672" xlink:href="#o"/>
  <use x="278.8125" y="672" xlink:href="#n"/>
  <use x="308.492188" y="672" xlink:href="#m"/>
  <use x="329.015625" y="672" xlink:href="#b"/>
  <use x="342.820312" y="672" xlink:href="#c"/>
  <use x="362.058594" y="672" xlink:href="#l"/>
  <use x="371.65625" y="672" xlink:href="#a"/>
  <use x="390.648438" y="672" xlink:href="#k"/>
  <use x="407.242188" y="672" xlink:href="#d"/>
 </g>
</svg>
