<?xml version="1.0" encoding="UTF-8"?>
<svg width="700pt" height="700pt" version="1.1" fill="#0fa78f" viewBox="0 0 700 700" xmlns="http://www.w3.org/2000/svg" xmlns:xlink="http://www.w3.org/1999/xlink">
 <g>
  <path d="m189.48 294.42c2.0156-1.5703 2.0781-16.934 0.99609-39.539-0.54297-11.301-1.3711-24.414-2.3828-38.516-0.30859-4.4922-0.75781-10.309-1.1758-15.699 4.4688 11.242 10.707 23.914 18.094 35.098 25.461 38.469 52.926 75.762 84.324 110.04 15.719 17.098 32.434 33.441 50.793 48.148 18.43 14.543 38.68 27.59 61.715 35.777 11.598 3.8945 23.895 6.2422 36.504 6.5195 12.836-0.20313 25.902-3.4531 37.156-9.9648 11.41-6.3594 20.406-15.84 27.457-25.969 3.8125-4.9688 6.4961-10.473 9.5117-15.805 2.4844-5.5312 5.2109-11 7.0859-16.703 8.3672-22.617 12.07-46.207 13.516-69.703 1.4492-23.531 0.035156-47.129-3.8594-70.414-0.80859-5.8438-2.3398-11.594-3.4844-17.395-1.625-5.7227-2.8359-11.523-4.875-17.168-3.5156-11.391-8.3594-22.535-14.562-33.16-6.2695-10.516-14.164-20.855-25.602-28.195-3.0234-1.582-5.9883-3.293-9.1367-4.6406-3.3359-0.95312-6.6367-2.2109-10.066-2.7344-3.4141-0.24609-7.0938-0.78906-10.305-0.60156-3.1758 0.30469-6.375 0.30859-9.5273 0.91406-12.676 1.918-24.898 7.0547-35.211 14.457-10.363 7.3867-18.879 16.82-25.699 27.055-13.559 20.633-20.977 44.133-24.188 67.891-3.0078 23.781-2.0195 48.375 6.0156 71.879 4.1367 11.629 10.016 23.223 19.48 32.543 4.4727 4.707 10.195 8.9141 17.348 11.645 7.1523 2.8477 16.695 2.25 23.512-1.5781 6.9258-3.668 11.75-8.918 15.512-14.184 3.7969-5.3086 6.8711-10.82 9.3477-16.426 5.1016-11.191 8.5469-22.672 11.215-34.25 5.1367-23.211 7.8164-46.695 5.6328-71.062-1.6719-17.957-8.7109-25.75-10.938-25.656-2.3477 0.003906-1.3633 5.6406-1.6328 11.484 0.097656 2.8281 3.1719 17.816 0.78125 42.879-1.1289 12.465-3.3359 27.383-7.793 43.848-2.2383 8.2109-5.0391 16.832-8.9141 25.363-1.9883 4.2188-4.0977 8.5352-6.7734 12.465-2.5664 4-5.6211 7.7656-9.168 10.5-3.5234 2.793-7.4375 4.4023-11.414 4.1133-3.9766-0.23438-8.2812-2.207-12.184-5.543-8.1367-6.2656-14.117-16.105-18.465-26.77-8.293-21.797-9.8672-48.066-5.4844-74.109 2.1836-13.043 5.8828-26.156 11.566-38.543 5.5547-12.426 13.191-24.109 23.043-33.527 9.8711-9.3242 22.125-16.102 35.645-18.215 3.3086-0.80859 6.8398-0.66406 10.215-0.99609 3.0586 0.50391 6.2578 0.12109 9.1797 1.3984 6.0977 1.375 11.543 5.3672 16.586 9.8164 9.8516 9.5703 17.121 22.805 22.531 36.758 5.4141 14.039 9.0898 29.027 11.566 44.262 4.9141 30.496 5.082 62.242 0.078125 92.734-2.5312 15.223-6.418 30.176-12.297 44.004-5.8633 13.773-13.875 26.484-24.438 35.613-10.488 9.1875-23.535 14.266-37.23 14.34-13.918 0.17969-27.926-3.5703-40.977-9.2578-26.246-11.539-49.102-29.777-69.426-48.68-20.25-19.176-38.242-39.402-54.328-59.426-31.754-39.457-56.766-77.523-76.32-109.56 1.8711 0.89844 3.7617 1.8047 5.6211 2.6953 10.074 4.7891 19.934 9.4766 29.285 13.918 18.738 8.8047 35.426 16.648 47.668 22.402 11.246 5.2578 8.1719-15.504-0.60938-19.605l-113.63-53.113 13.145 133.85c0.68359 6.9492 6.4141 5.0742 9.9727 2.3047z"/>
  <use x="70" y="653.332031" xlink:href="#t"/>
  <use x="92.832031" y="653.332031" xlink:href="#d"/>
  <use x="108.175781" y="653.332031" xlink:href="#a"/>
  <use x="129.273437" y="653.332031" xlink:href="#l"/>
  <use x="150.269531" y="653.332031" xlink:href="#c"/>
  <use x="165.140625" y="653.332031" xlink:href="#a"/>
  <use x="186.242188" y="653.332031" xlink:href="#k"/>
  <use x="219.34375" y="653.332031" xlink:href="#j"/>
  <use x="241.613281" y="653.332031" xlink:href="#i"/>
  <use x="272.722656" y="653.332031" xlink:href="#h"/>
  <use x="283.386719" y="653.332031" xlink:href="#e"/>
  <use x="301.828125" y="653.332031" xlink:href="#b"/>
  <use x="323.203125" y="653.332031" xlink:href="#g"/>
  <use x="345.351562" y="653.332031" xlink:href="#e"/>
  <use x="363.792969" y="653.332031" xlink:href="#f"/>
  <use x="385.941406" y="653.332031" xlink:href="#a"/>
  <use x="407.042969" y="653.332031" xlink:href="#a"/>
  <use x="428.140625" y="653.332031" xlink:href="#s"/>
  <use x="446.660156" y="653.332031" xlink:href="#a"/>
  <use x="70" y="684.445312" xlink:href="#r"/>
  <use x="83.535156" y="684.445312" xlink:href="#d"/>
  <use x="98.878906" y="684.445312" xlink:href="#b"/>
  <use x="120.25" y="684.445312" xlink:href="#q"/>
  <use x="163.5" y="684.445312" xlink:href="#c"/>
  <use x="178.371094" y="684.445312" xlink:href="#f"/>
  <use x="200.519531" y="684.445312" xlink:href="#a"/>
  <use x="232.453125" y="684.445312" xlink:href="#p"/>
  <use x="258.488281" y="684.445312" xlink:href="#b"/>
  <use x="279.863281" y="684.445312" xlink:href="#o"/>
  <use x="302.011719" y="684.445312" xlink:href="#g"/>
  <use x="334.992188" y="684.445312" xlink:href="#n"/>
  <use x="357.792969" y="684.445312" xlink:href="#d"/>
  <use x="373.136719" y="684.445312" xlink:href="#b"/>
  <use x="394.507812" y="684.445312" xlink:href="#m"/>
  <use x="405.171875" y="684.445312" xlink:href="#a"/>
  <use x="426.273437" y="684.445312" xlink:href="#e"/>
  <use x="444.714844" y="684.445312" xlink:href="#c"/>
 </g>
</svg>
